<svg width="300" height="300" viewBox="0 0 300 300" fill="none" xmlns="http://www.w3.org/2000/svg">
<path d="M43.9324 277.452C102.513 307.512 197.487 307.521 256.068 277.452C314.648 247.382 314.64 198.649 256.068 168.589C197.495 138.529 102.513 138.529 43.9324 168.589C-14.6484 198.649 -14.6399 247.391 43.9324 277.452Z" fill="#F5F5F5"/>
<path d="M255.864 255.236C266.653 255.236 275.399 250.749 275.399 245.213C275.399 239.677 266.653 235.19 255.864 235.19C245.075 235.19 236.328 239.677 236.328 245.213C236.328 250.749 245.075 255.236 255.864 255.236Z" fill="#EBEBEB"/>
<path d="M39.4863 246.65L46.3977 242.357C50.2565 238.966 53.1935 234.517 54.8987 229.478C57.0325 223.144 56.735 218.329 55.2048 215.913C53.326 212.938 48.4549 213.46 48.2594 219.721C47.8514 232.059 44.5105 240.618 39.4863 246.65Z" fill="#92E3A9"/>
<path opacity="0.2" d="M39.4863 246.65L46.3977 242.357C50.2565 238.966 53.1935 234.517 54.8987 229.478C57.0325 223.144 56.735 218.329 55.2048 215.913C53.326 212.938 48.4549 213.46 48.2594 219.721C47.8514 232.059 44.5105 240.618 39.4863 246.65Z" fill="black"/>
<path d="M39.4864 247.108C39.3964 247.107 39.309 247.075 39.237 247.017C39.1649 246.958 39.1118 246.877 39.0853 246.785C39.0589 246.692 39.0604 246.593 39.0897 246.501C39.119 246.409 39.1745 246.33 39.2483 246.275C55.2303 234.375 52.1359 217.78 52.1019 217.615C52.0902 217.555 52.0896 217.493 52.1001 217.433C52.1107 217.372 52.1321 217.315 52.1633 217.263C52.1945 217.212 52.2348 217.168 52.2819 217.133C52.3289 217.098 52.3819 217.074 52.4377 217.061C52.4935 217.049 52.5511 217.048 52.6072 217.059C52.6632 217.071 52.7167 217.094 52.7644 217.127C52.8122 217.161 52.8533 217.204 52.8855 217.255C52.9177 217.306 52.9403 217.363 52.952 217.423C52.952 217.597 56.2164 234.76 39.7584 247.025C39.6785 247.084 39.583 247.113 39.4864 247.108Z" fill="white"/>
<path d="M25.6381 255.263C25.6381 255.263 23.2323 253.158 23.8104 250.302C24.3884 247.446 25.9441 245.396 23.2833 241.716C20.6225 238.037 19.8829 233.13 23.0623 230.476C25.4851 228.416 29.268 231.327 30.6282 225.899C31.6313 221.926 31.2913 213.13 35.9924 210.201C40.6934 207.272 43.6433 211.684 42.9037 217.652C42.2576 222.988 41.3395 228.123 42.0536 229.551C43.4308 232.297 45.7856 231.922 45.6751 236.938C45.5816 241.606 41.4755 245.469 41.4755 245.469L25.6381 255.263Z" fill="#92E3A9"/>
<path d="M33.5355 250.787C33.4316 250.786 33.3315 250.745 33.2535 250.671C33.1755 250.597 33.1247 250.496 33.1104 250.385C31.8948 239.538 34.8107 220.81 37.1909 215.244C37.211 215.183 37.2431 215.126 37.2851 215.079C37.327 215.032 37.3779 214.995 37.4343 214.97C37.4907 214.946 37.5513 214.935 37.6119 214.938C37.6726 214.941 37.732 214.958 37.786 214.988C37.8368 215.013 37.8824 215.048 37.9203 215.092C37.9581 215.136 37.9874 215.187 38.0065 215.244C38.0255 215.3 38.0338 215.36 38.031 215.42C38.0282 215.48 38.0143 215.538 37.99 215.592C35.6353 221.084 32.8214 239.867 33.986 250.238C33.998 250.358 33.9654 250.479 33.8953 250.573C33.8253 250.667 33.7234 250.728 33.612 250.742L33.5355 250.787Z" fill="white"/>
<path d="M33.3061 242.339C33.241 242.342 33.1764 242.326 33.1191 242.293C30.1692 240.746 28.299 235.227 28.2225 234.97C28.2016 234.913 28.1916 234.852 28.193 234.791C28.1944 234.73 28.2072 234.67 28.2305 234.614C28.2539 234.558 28.2875 234.508 28.3292 234.467C28.3709 234.425 28.4199 234.393 28.4733 234.372C28.5268 234.351 28.5836 234.342 28.6403 234.345C28.6971 234.349 28.7526 234.364 28.8038 234.391C28.8549 234.418 28.9005 234.455 28.9379 234.501C28.9753 234.547 29.0038 234.601 29.0216 234.659C29.0216 234.714 30.8493 240.06 33.4931 241.442C33.5798 241.487 33.6497 241.563 33.6913 241.656C33.7329 241.75 33.7437 241.856 33.7219 241.957C33.7002 242.058 33.6472 242.148 33.5716 242.213C33.4961 242.277 33.4025 242.312 33.3061 242.311V242.339Z" fill="white"/>
<path d="M33.255 246C33.1698 246 33.0867 245.972 33.0168 245.92C32.9468 245.867 32.8935 245.793 32.864 245.707C32.8217 245.596 32.8221 245.47 32.865 245.359C32.908 245.247 32.9901 245.159 33.0935 245.112C38.0581 242.97 41.1525 236.609 41.1865 236.535C41.2384 236.427 41.3279 236.346 41.4356 236.309C41.5432 236.272 41.66 236.283 41.7603 236.339C41.8607 236.394 41.9363 236.491 41.9705 236.607C42.0048 236.723 41.995 236.848 41.9431 236.956C41.8071 237.231 38.6702 243.693 33.442 245.964C33.3838 245.993 33.3193 246.006 33.255 246Z" fill="white"/>
<path d="M206.787 196.754C206.787 196.754 203.072 190.274 202.707 183.235C202.341 176.196 203.778 173.266 205.75 172.424C207.722 171.582 207.875 174.173 208.887 175.701C209.898 177.23 211.964 176.36 212.729 171.591C213.494 166.822 216.283 158.776 222.08 157.211C228.456 155.509 225.039 163.564 223.432 166.703C221.825 169.843 220.584 174.127 221.638 175.289C222.693 176.452 224.333 174.301 225.889 176.296C227.785 178.704 221.893 187.372 218.51 189.468L206.787 196.754Z" fill="#92E3A9"/>
<path d="M211.879 194.036C211.823 194.033 211.768 194.019 211.718 193.994C211.667 193.969 211.621 193.933 211.583 193.889C211.546 193.845 211.516 193.793 211.497 193.736C211.478 193.68 211.469 193.62 211.471 193.56C212.047 182.237 215.326 171.265 220.992 161.706C221.024 161.656 221.065 161.614 221.113 161.581C221.161 161.549 221.214 161.528 221.27 161.518C221.325 161.509 221.382 161.512 221.437 161.527C221.491 161.541 221.543 161.568 221.587 161.605C221.676 161.676 221.736 161.782 221.754 161.9C221.771 162.018 221.745 162.139 221.681 162.237C216.116 171.656 212.896 182.459 212.33 193.606C212.326 193.666 212.312 193.725 212.288 193.779C212.263 193.833 212.229 193.881 212.187 193.921C212.145 193.961 212.097 193.992 212.044 194.012C211.991 194.031 211.935 194.039 211.879 194.036Z" fill="white"/>
<path d="M212.364 188.626C212.293 188.625 212.223 188.607 212.16 188.571C209.779 187.152 208.462 182.942 208.411 182.768C208.392 182.711 208.384 182.65 208.387 182.59C208.39 182.529 208.404 182.47 208.429 182.416C208.453 182.361 208.488 182.312 208.53 182.272C208.572 182.232 208.621 182.202 208.674 182.182C208.781 182.144 208.898 182.154 208.998 182.209C209.099 182.264 209.175 182.36 209.21 182.475C209.21 182.475 210.485 186.53 212.61 187.766C212.707 187.827 212.777 187.926 212.807 188.042C212.837 188.158 212.825 188.282 212.772 188.388C212.733 188.467 212.674 188.532 212.601 188.574C212.529 188.616 212.446 188.634 212.364 188.626Z" fill="white"/>
<path d="M212.78 185.853C212.686 185.851 212.595 185.817 212.521 185.754C212.447 185.691 212.395 185.603 212.372 185.505C212.358 185.447 212.355 185.387 212.363 185.328C212.371 185.269 212.39 185.212 212.418 185.161C212.447 185.11 212.484 185.065 212.529 185.03C212.574 184.995 212.624 184.969 212.678 184.955C218.816 183.28 220.941 179.82 220.958 179.784C220.988 179.733 221.027 179.688 221.074 179.654C221.12 179.619 221.171 179.594 221.226 179.581C221.281 179.568 221.338 179.566 221.393 179.577C221.449 179.587 221.502 179.609 221.549 179.642C221.596 179.674 221.637 179.717 221.67 179.766C221.702 179.816 221.725 179.872 221.737 179.931C221.749 179.99 221.751 180.051 221.741 180.11C221.731 180.17 221.711 180.227 221.681 180.278C221.587 180.434 219.377 184.068 212.891 185.843L212.78 185.853Z" fill="white"/>
<path d="M114.296 182.53C114.296 182.53 106.143 180.388 105.718 163.948C105.267 146.209 107.716 125.504 98.0671 123.828C88.4184 122.153 83.0627 134.813 83.1818 149.596C83.2923 162.539 88.1379 190.64 114.262 196.15L114.296 182.53Z" fill="#92E3A9"/>
<path opacity="0.2" d="M114.296 182.53C114.296 182.53 106.143 180.388 105.718 163.948C105.267 146.209 107.716 125.504 98.0671 123.828C88.4184 122.153 83.0627 134.813 83.1818 149.596C83.2923 162.539 88.1379 190.64 114.262 196.15L114.296 182.53Z" fill="black"/>
<path d="M114.296 194.466H114.219C108.345 193.313 103.559 189.825 99.9969 184.113C89.4386 167.152 92.7625 135.481 93.8591 129.952C93.8836 129.834 93.9496 129.731 94.0431 129.665C94.1366 129.598 94.2504 129.573 94.3607 129.595C94.4707 129.624 94.5665 129.696 94.6281 129.799C94.6898 129.901 94.7128 130.025 94.6922 130.144C93.6126 135.636 90.3057 166.905 100.702 183.601C102.216 186.19 104.212 188.412 106.566 190.127C108.919 191.841 111.577 193.01 114.372 193.56C114.428 193.571 114.481 193.594 114.528 193.627C114.575 193.66 114.616 193.703 114.647 193.753C114.679 193.803 114.701 193.86 114.712 193.919C114.723 193.979 114.723 194.04 114.712 194.1C114.694 194.204 114.642 194.298 114.566 194.365C114.49 194.432 114.394 194.468 114.296 194.466Z" fill="white"/>
<path d="M114.296 236.654C105.871 237.881 92.1928 237.863 84.2953 231.162C76.3979 224.462 78.047 218.695 81.0819 216.288C84.1168 213.881 86.7521 211.135 81.5325 205.789C76.3128 200.443 67.9308 191.857 65.2105 178.978C62.4901 166.099 63.8333 158.044 69.172 155.362C74.3491 152.763 75.7178 156.9 78.8887 165.431C82.0596 173.962 89.1919 166.649 95.2957 169.312C101.399 171.976 101.153 177.248 101.535 181.779C101.918 186.31 103.933 187.564 107.393 187.564C110.853 187.564 114.296 189.706 114.296 193.972V236.654Z" fill="#92E3A9"/>
<path d="M114.296 221.698C114.259 221.706 114.221 221.706 114.185 221.698C113.819 221.588 105.106 218.86 92.4138 206.311C78.8971 192.946 72.5213 172.9 72.4533 172.699C72.4208 172.584 72.4309 172.459 72.4816 172.352C72.5323 172.244 72.6197 172.162 72.7254 172.122C72.8314 172.084 72.947 172.093 73.0472 172.146C73.1474 172.199 73.2242 172.292 73.2609 172.406C73.3204 172.607 79.6367 192.434 92.9919 205.633C105.505 218.018 114.321 220.791 114.415 220.819C114.468 220.836 114.518 220.864 114.562 220.901C114.605 220.939 114.641 220.985 114.668 221.038C114.695 221.091 114.712 221.149 114.718 221.208C114.724 221.268 114.719 221.329 114.704 221.386C114.676 221.479 114.621 221.559 114.548 221.615C114.474 221.671 114.386 221.7 114.296 221.698Z" fill="white"/>
<path d="M95.9588 209.496C95.8733 209.497 95.7896 209.47 95.7195 209.417C95.6493 209.365 95.5962 209.29 95.5678 209.203C92.8389 201.661 92.2183 185.523 92.1673 184.837C92.1649 184.716 92.2061 184.599 92.2822 184.51C92.3583 184.421 92.4634 184.368 92.5754 184.361C92.6864 184.362 92.7929 184.408 92.8745 184.489C92.9561 184.57 93.007 184.681 93.0174 184.8C93.0174 184.965 93.655 201.468 96.3328 208.874C96.3533 208.93 96.3632 208.99 96.3619 209.051C96.3605 209.112 96.348 209.171 96.3251 209.227C96.3022 209.282 96.2692 209.332 96.2283 209.373C96.1873 209.415 96.139 209.447 96.0863 209.469C96.0453 209.484 96.0023 209.494 95.9588 209.496Z" fill="white"/>
<path d="M95.8909 220.343C95.1071 220.35 94.3237 220.307 93.5446 220.215C93.4888 220.208 93.4348 220.189 93.3858 220.159C93.3368 220.129 93.2937 220.09 93.259 220.042C93.2242 219.994 93.1985 219.94 93.1834 219.882C93.1682 219.823 93.1638 219.762 93.1705 219.702C93.1772 219.642 93.1949 219.584 93.2224 219.531C93.25 219.478 93.2869 219.432 93.3311 219.395C93.3753 219.357 93.4259 219.33 93.48 219.313C93.5342 219.297 93.5908 219.292 93.6466 219.299C93.7231 219.299 101.638 220.27 105.268 216.288C105.305 216.24 105.352 216.201 105.405 216.173C105.457 216.145 105.514 216.129 105.573 216.126C105.631 216.123 105.69 216.133 105.745 216.156C105.799 216.179 105.849 216.213 105.891 216.257C105.932 216.302 105.965 216.355 105.987 216.413C106.009 216.472 106.019 216.535 106.017 216.598C106.015 216.661 106.001 216.723 105.976 216.78C105.951 216.837 105.915 216.887 105.871 216.929C103.244 219.849 98.6622 220.343 95.8909 220.343Z" fill="white"/>
<path d="M89.7699 47.0123L88.8518 41.3097L84.1252 44.6599C83.6933 43.7446 83.0812 42.9418 82.3315 42.3075L84.5928 35.7169L80.3422 34.7009L77.2308 41.1083C76.1052 41.3128 75.0138 41.6953 73.9919 42.2434L72.6403 37.4103L67.5906 41.685L67.9222 47.3602C66.8939 48.6005 65.9613 49.9291 65.1338 51.3328L60.9683 51.104L58.044 58.1613L61.6229 59.8089C61.2493 61.2687 61.0129 62.7652 60.9173 64.2758L56.3693 68.7794L57.2789 74.4911L62.014 71.141C62.4434 72.0554 63.056 72.8558 63.8077 73.4842L61.5889 80.0839L65.8394 81.0908L70.294 76.4225C71.3226 76.2486 71.0676 74.1616 72.1897 73.5666L73.5414 78.3814L78.5825 74.1158L78.455 71.8824C79.4751 70.6558 83.3346 67.9555 84.1677 66.5459L85.2133 64.7152L88.1377 57.6579L86.7775 55.0033L85.2643 51.5433L89.7699 47.0123ZM74.3405 65.7862C70.464 69.0631 69.2399 69.7862 68.5853 65.4017C67.9307 61.0172 70.1495 54.3534 74.026 51.0673C77.9024 47.7812 79.3816 47.5524 80.0787 51.9278C80.7758 56.3031 78.2255 62.5458 74.3405 65.7862Z" fill="#E0E0E0"/>
<path d="M80.3763 34.7009L85.8935 38.1243L82.7821 44.5134L77.2649 41.09L80.3763 34.7009Z" fill="#F5F5F5"/>
<path d="M94.369 44.7331L89.6424 48.0833L84.1252 44.6599L88.8518 41.3097L94.369 44.7331Z" fill="#F5F5F5"/>
<path d="M93.6125 61.0538L90.0335 59.4153L84.5164 55.9919L88.0953 57.6304L93.6125 61.0538Z" fill="#E0E0E0"/>
<path d="M61.5806 80.0839L67.0977 83.4982L69.359 76.9077L63.8418 73.4843L61.5806 80.0839Z" fill="#E0E0E0"/>
<path d="M79.0077 81.8048L73.499 78.3814L72.1473 73.5666L77.6645 76.99L79.0077 81.8048Z" fill="#E0E0E0"/>
<path d="M95.2787 50.4358L94.369 44.7331L89.6425 48.0833C89.2074 47.1676 88.5925 46.3649 87.8402 45.7309L90.1015 39.1404L85.8935 38.1243L82.7736 44.5318C81.6479 44.7362 80.5565 45.1187 79.5347 45.6668L78.1915 40.8521L73.1419 45.1267L73.4735 50.8019C72.444 52.051 71.5114 53.3888 70.6851 54.802L66.5111 54.5731L63.5867 61.6305L67.1657 63.2781C66.7954 64.7418 66.5591 66.2409 66.4601 67.7542L61.9205 72.1936L62.8302 77.9054L67.5567 74.5552C67.9919 75.4683 68.6069 76.268 69.359 76.8985L67.0977 83.489L71.3482 84.5051L74.4596 78.0976C75.5896 77.8954 76.6846 77.5096 77.707 76.9534L79.0501 81.7682L84.0998 77.5026L83.7682 71.8275C84.7965 70.5872 85.7291 69.2586 86.5566 67.8549L90.7306 68.0745L93.655 61.0172L90.025 59.3787C90.4013 57.9161 90.6406 56.4166 90.7391 54.9027L95.2787 50.4358ZM79.8663 69.2462C75.9983 72.5231 72.2918 71.6353 71.5862 67.2599C70.8806 62.8845 73.4565 56.6693 77.3329 53.3923C81.2094 50.1154 84.9074 51.0124 85.613 55.3878C86.3185 59.7632 83.7427 65.9692 79.8663 69.2462Z" fill="#EBEBEB"/>
<path d="M78.1916 40.8338L72.6744 37.4104L67.6248 41.685L73.1419 45.1084L78.1916 40.8338Z" fill="#F5F5F5"/>
<path d="M67.6248 41.685L67.9563 47.3602L73.4735 50.7836L73.1419 45.1084L67.6248 41.685Z" fill="#E0E0E0"/>
<path d="M70.6851 54.7562L65.168 51.3328L61.0024 51.1131L66.5111 54.5365L70.6851 54.7562Z" fill="#F5F5F5"/>
<path d="M61.0025 51.1131L58.0781 58.1613L63.5868 61.5847L66.5112 54.5365L61.0025 51.1131Z" fill="#E0E0E0"/>
<path d="M66.4601 67.6992L60.9514 64.2758L56.4033 68.7793L61.912 72.2027L66.4601 67.6992Z" fill="#F5F5F5"/>
<path d="M62.8301 77.9145L57.3129 74.4911L56.4033 68.7794L61.912 72.2028L62.8301 77.9145Z" fill="#E0E0E0"/>
<path d="M85.8934 38.1243L80.3762 34.7009L84.5927 35.7169L90.1014 39.1403L85.8934 38.1243Z" fill="#F5F5F5"/>
<path d="M65.0659 21.1263V12.6044L58.7667 15.6616C58.433 14.2158 57.8568 12.8478 57.0664 11.6249L61.0364 3.0115L56.1908 0L51.2432 8.00931C49.8644 7.87961 48.4753 8.02546 47.1457 8.43952L46.4486 1.03435L39.5968 5.29987L38.9082 13.538C37.417 14.9608 36.0458 16.523 34.8107 18.2063L29.8631 16.3756L25.0175 25.4193L28.979 29.0807C28.247 31.0738 27.6781 33.132 27.2788 35.2318L20.9795 40.0008V48.5318L27.2788 45.4746C27.6124 46.9204 28.1886 48.2884 28.979 49.5112L25.0345 58.1338L29.8801 61.1453L34.8277 53.136C36.2065 53.2653 37.5956 53.1195 38.9252 52.7058L39.6138 60.111L46.4656 55.8455L47.1627 47.6073C49.3013 46.7672 51.1958 45.3336 52.6544 43.4516L56.2078 44.7972L61.0534 35.7627L58.0781 33.0166C58.724 30.7268 58.9634 28.3263 58.7837 25.941L65.0659 21.1263ZM43.0227 42.4173C37.7691 45.6851 34.5217 43.3326 34.5217 36.8245C34.5217 30.3164 38.8657 22.2705 44.1279 19.0027C49.39 15.7349 52.5694 18.0873 52.5694 24.6504C52.5694 31.2134 48.2849 39.1403 43.0227 42.4173Z" fill="#E0E0E0"/>
<path d="M61.6995 3.41426L56.1908 0L51.2432 8.00931L56.7518 11.4327L61.6995 3.41426Z" fill="#F5F5F5"/>
<path d="M70.5831 16.0278L65.0659 12.6044L58.7666 15.6616L64.2838 19.085L70.5831 16.0278Z" fill="#F5F5F5"/>
<path d="M45.1055 63.5344L39.5968 60.111L38.9082 52.7058L44.4169 56.1292L45.1055 63.5344Z" fill="#E0E0E0"/>
<path d="M25.009 58.1338L30.5262 61.5573L34.4962 52.9438L28.979 49.5204L25.009 58.1338Z" fill="#E0E0E0"/>
<path d="M70.5832 24.5954V16.0735L64.2839 19.1034C63.9537 17.6562 63.3772 16.2875 62.5837 15.0667L66.5537 6.45323L61.7081 3.43257L56.7605 11.451C55.3817 11.3168 53.9917 11.4628 52.6629 11.8812L51.9659 4.45777L45.114 8.7233L44.4169 16.9614C42.9279 18.3866 41.5569 19.9485 40.3194 21.6297L35.3718 19.799L30.5262 28.8427L34.4962 32.5041C33.7603 34.4958 33.1913 36.5544 32.796 38.6552L26.4967 43.4242V51.9552L32.796 48.898C33.1259 50.3452 33.7024 51.7139 34.4962 52.9347L30.5262 61.5481L35.3718 64.5596L40.3194 56.5503C41.6982 56.68 43.0874 56.5341 44.4169 56.1201L45.114 63.5252L51.9659 59.2597L52.6544 51.0216C54.1456 49.5988 55.5168 48.0366 56.7519 46.3533L61.6996 48.184L66.5452 39.1495L62.5752 35.4881C63.3108 33.4963 63.8798 31.4377 64.2754 29.337L70.5832 24.5954ZM48.5399 45.8865C43.2778 49.1543 39.0103 46.4997 39.0103 39.9642C39.0103 33.4286 43.2608 25.4742 48.5399 22.1972C53.8191 18.9203 58.0611 21.5839 58.0611 28.1195C58.0611 34.6551 53.7936 42.5638 48.5399 45.8407V45.8865Z" fill="#EBEBEB"/>
<path d="M34.8106 18.2246L40.3193 21.648L35.3717 19.7898L29.863 16.3573L34.8106 18.2246Z" fill="#F0F0F0"/>
<path d="M29.8625 16.3667L25.0156 25.4134L30.531 28.8393L35.3779 19.7926L29.8625 16.3667Z" fill="#F5F5F5"/>
<path d="M25.009 25.4009L30.5262 28.8244L34.4962 32.5041L28.979 29.0898L25.009 25.4009Z" fill="#E0E0E0"/>
<path d="M27.2788 35.2409L32.7959 38.6643L26.4967 43.4333L20.9795 40.0099L27.2788 35.2409Z" fill="#F5F5F5"/>
<path d="M20.9795 40.0099L26.4967 43.4333V51.9644L20.9795 48.541V40.0099Z" fill="#E0E0E0"/>
<path d="M51.9658 4.45777L46.4487 1.03436L39.5968 5.29989L45.1055 8.7233L51.9658 4.45777Z" fill="#F5F5F5"/>
<path d="M122.695 248.902L202.604 199.217C202.78 199.15 202.933 199.026 203.041 198.862C203.149 198.698 203.207 198.502 203.207 198.301C203.207 198.1 203.149 197.904 203.041 197.74C202.933 197.576 202.78 197.453 202.604 197.386L195.217 192.809C194.759 192.561 194.254 192.432 193.742 192.432C193.23 192.432 192.725 192.561 192.267 192.809L112.332 242.449C112.156 242.515 112.003 242.639 111.895 242.803C111.787 242.967 111.729 243.163 111.729 243.364C111.729 243.565 111.787 243.761 111.895 243.925C112.003 244.089 112.156 244.213 112.332 244.279L119.745 248.856C120.199 249.111 120.702 249.248 121.215 249.256C121.727 249.264 122.234 249.143 122.695 248.902Z" fill="#E0E0E0"/>
<path d="M200.411 7.38687L128.356 52.1841C127.285 52.9367 126.394 53.9505 125.754 55.1432C125.115 56.3359 124.745 57.674 124.675 59.0492V243.098C124.675 245.625 126.324 246.65 128.356 245.387L200.411 200.59C201.484 199.839 202.376 198.825 203.016 197.632C203.655 196.439 204.024 195.1 204.092 193.725V9.67524C204.092 7.14888 202.451 6.12368 200.411 7.38687Z" fill="#455A64"/>
<path d="M128.356 52.1841L200.411 7.38687C202.23 6.25184 203.735 6.95666 204.041 8.92466C203.871 7.68733 203.46 6.50278 202.834 5.4489C202.209 4.39503 201.383 3.49571 200.411 2.81013L197.419 0.979429C196.278 0.35626 195.017 0.0314941 193.738 0.0314941C192.459 0.0314941 191.198 0.35626 190.057 0.979429L117.994 45.74C116.908 46.4728 116.013 47.4901 115.392 48.6966L125.755 55.104C126.376 53.907 127.271 52.9016 128.356 52.1841Z" fill="#37474F"/>
<path d="M114.296 236.654C114.365 238.03 114.735 239.368 115.375 240.56C116.014 241.753 116.905 242.767 117.977 243.52L120.977 245.35C122.016 245.91 123.153 246.227 124.313 246.28C125.473 246.334 126.631 246.123 127.71 245.661C126.01 246.375 124.658 245.323 124.658 243.062V59.0492C124.701 57.6682 125.073 56.3222 125.738 55.1406L115.375 48.7332C114.719 49.9058 114.348 51.2374 114.296 52.6051V236.654Z" fill="#263238"/>
<path d="M130.337 76.7062L198.456 34.3713C199.68 33.6208 200.666 34.234 200.666 35.7444V171.967C200.625 172.792 200.404 173.596 200.02 174.312C199.635 175.027 199.1 175.635 198.456 176.086L130.362 218.421C129.138 219.18 128.152 218.567 128.152 217.048V80.8253C128.191 80.0024 128.409 79.2007 128.788 78.4852C129.168 77.7697 129.698 77.1603 130.337 76.7062Z" fill="white"/>
<path d="M164.384 36.7604C164.008 37.0262 163.695 37.3833 163.47 37.803C163.246 38.2228 163.116 38.6933 163.092 39.1769C163.092 40.0923 163.67 40.431 164.384 39.9824C164.761 39.7183 165.075 39.3615 165.3 38.9415C165.524 38.5214 165.653 38.05 165.676 37.5659C165.676 36.678 165.098 36.321 164.384 36.7604Z" fill="#37474F"/>
<path d="M164.384 203.766C162.897 204.813 161.661 206.222 160.775 207.879C159.889 209.536 159.378 211.394 159.283 213.304C159.283 216.81 161.57 218.238 164.384 216.48C165.869 215.433 167.105 214.024 167.991 212.367C168.877 210.71 169.389 208.851 169.484 206.942C169.501 203.436 167.206 202.008 164.384 203.766Z" fill="#37474F"/>
<path d="M152.151 50.93C151.404 51.464 150.783 52.1797 150.34 53.0192C149.897 53.8587 149.644 54.7986 149.6 55.7631C149.6 57.5388 150.756 58.262 152.151 57.3741C152.906 56.8451 153.534 56.1317 153.985 55.2919C154.435 54.452 154.695 53.5095 154.743 52.541C154.743 50.7653 153.587 50.0421 152.151 50.93Z" fill="#37474F"/>
<path d="M158.501 50.3259C158.501 51.5158 159.351 51.9644 160.346 51.3328L177.348 40.7422C177.875 40.388 178.316 39.905 178.637 39.3324C178.957 38.7598 179.148 38.1137 179.193 37.4469C179.193 36.2661 178.343 35.8176 177.348 36.4492L160.346 47.0398C159.82 47.393 159.379 47.8746 159.059 48.4455C158.738 49.0164 158.547 49.6606 158.501 50.3259Z" fill="#37474F"/>
<path d="M120.042 82.6011C120.645 83.0242 121.148 83.5945 121.508 84.2656C121.868 84.9367 122.077 85.6898 122.116 86.4639C122.116 87.8918 121.19 88.4685 120.042 87.7545C119.441 87.3299 118.941 86.759 118.582 86.0881C118.223 85.4172 118.016 84.6648 117.976 83.8918C117.976 82.473 118.903 81.8963 120.042 82.6011Z" fill="#37474F"/>
<path d="M120.042 99.7914C120.645 100.214 121.148 100.785 121.508 101.456C121.868 102.127 122.077 102.88 122.116 103.654C122.116 105.073 121.19 105.65 120.042 104.945C119.441 104.52 118.941 103.949 118.582 103.278C118.223 102.607 118.016 101.855 117.976 101.082C117.976 99.6541 118.903 99.0774 120.042 99.7914Z" fill="#37474F"/>
<path d="M119.396 82.949C120 83.3721 120.502 83.9423 120.862 84.6134C121.223 85.2846 121.431 86.0377 121.471 86.8117C121.471 88.2305 120.544 88.8072 119.396 88.1024C118.793 87.6793 118.291 87.109 117.93 86.4379C117.57 85.7668 117.362 85.0137 117.322 84.2396C117.331 82.8117 118.257 82.2624 119.396 82.949Z" fill="#455A64"/>
<path d="M119.396 100.13C120.001 100.554 120.504 101.126 120.864 101.799C121.224 102.471 121.432 103.226 121.471 104.002C121.471 105.421 120.544 105.997 119.396 105.283C118.792 104.862 118.288 104.292 117.928 103.621C117.567 102.949 117.36 102.195 117.322 101.421C117.331 100.002 118.257 99.4252 119.396 100.13Z" fill="#455A64"/>
<path d="M214.455 40.0557C214.455 38.5362 213.469 37.9229 212.245 38.6827L204.092 43.7445L144.151 81.0176C143.507 81.468 142.972 82.0759 142.588 82.7918C142.203 83.5076 141.982 84.3111 141.941 85.1366V221.322C141.941 222.842 142.927 223.455 144.151 222.695L204.118 185.413L212.245 180.36C212.889 179.91 213.424 179.302 213.809 178.586C214.193 177.87 214.414 177.067 214.455 176.241V40.0557Z" fill="white"/>
<path d="M215.305 40.0557C215.359 39.5966 215.285 39.1308 215.094 38.7164C214.903 38.3021 214.603 37.9576 214.231 37.7261C213.859 37.4945 213.432 37.3862 213.003 37.4147C212.574 37.4432 212.162 37.6073 211.82 37.8863L204.041 42.7285L143.726 80.2578C142.95 80.7856 142.304 81.5088 141.845 82.3652C141.386 83.2215 141.127 84.1852 141.091 85.1732V221.322C141.057 221.779 141.138 222.238 141.327 222.649C141.516 223.06 141.804 223.408 142.162 223.656C142.466 223.847 142.813 223.945 143.165 223.94C143.663 223.923 144.149 223.769 144.576 223.492L204.934 185.962L212.695 181.138C213.467 180.606 214.11 179.881 214.568 179.026C215.027 178.171 215.288 177.209 215.331 176.223L215.305 40.0557ZM204.058 184.397L203.361 184.836L143.76 221.89C143.66 221.973 143.544 222.03 143.42 222.059C143.297 222.087 143.169 222.086 143.046 222.055C142.936 221.981 142.825 221.725 142.825 221.304V85.1366C142.869 84.472 143.053 83.8268 143.362 83.2497C143.671 82.6725 144.098 82.1785 144.61 81.8047L204.152 44.7331L212.653 39.4332C212.753 39.3504 212.869 39.2926 212.992 39.2641C213.116 39.2356 213.244 39.2371 213.367 39.2685C213.477 39.3417 213.588 39.598 213.588 40.0191V176.241C213.544 176.906 213.36 177.551 213.051 178.128C212.742 178.705 212.315 179.199 211.803 179.573L204.041 184.397H204.058Z" fill="#92E3A9"/>
<path d="M178.198 71.6993C185.849 66.9578 192.012 70.784 192.012 80.2944C192.012 89.8049 185.823 101.347 178.198 106.052C170.573 110.757 164.384 106.968 164.384 97.4664C164.384 87.9651 170.573 76.45 178.198 71.6993Z" fill="#92E3A9"/>
<path d="M178.198 79.1686C180.672 77.6308 182.678 78.8757 182.678 81.9146C182.594 83.5888 182.144 85.218 181.366 86.67C180.588 88.1221 179.502 89.356 178.198 90.2718C175.724 91.8095 173.718 90.5647 173.718 87.5257C173.802 85.8516 174.251 84.2224 175.03 82.7703C175.808 81.3183 176.894 80.0843 178.198 79.1686Z" fill="#92E3A9"/>
<path d="M186.929 95.5716C186.929 90.5189 183.639 88.4685 179.567 90.9948L177.016 92.5784C172.953 95.1048 169.654 101.256 169.654 106.309V107.672C172.009 108.505 174.968 108.057 178.155 106.052C181.687 103.707 184.673 100.523 186.886 96.7432L186.929 95.5716Z" fill="#92E3A9"/>
<path opacity="0.7" d="M178.198 79.1686C180.672 77.6308 182.678 78.8757 182.678 81.9146C182.594 83.5888 182.144 85.218 181.366 86.67C180.588 88.1221 179.502 89.356 178.198 90.2718C175.724 91.8095 173.718 90.5647 173.718 87.5257C173.802 85.8516 174.251 84.2224 175.03 82.7703C175.808 81.3183 176.894 80.0843 178.198 79.1686Z" fill="white"/>
<path opacity="0.7" d="M186.929 95.5716C186.929 90.5189 183.639 88.4685 179.567 90.9948L177.016 92.5784C172.953 95.1048 169.654 101.256 169.654 106.309V107.672C172.009 108.505 174.968 108.057 178.155 106.052C181.687 103.707 184.673 100.523 186.886 96.7432L186.929 95.5716Z" fill="white"/>
<path d="M151.471 126.968L169.246 115.92C170.097 115.416 170.717 115.819 170.717 116.835V117.467C170.69 118.017 170.543 118.552 170.287 119.03C170.032 119.507 169.675 119.912 169.246 120.213L151.471 131.261C150.663 131.765 150 131.353 150 130.346V129.714C150.028 129.164 150.175 128.629 150.431 128.152C150.686 127.675 151.042 127.269 151.471 126.968Z" fill="#92E3A9"/>
<path opacity="0.1" d="M151.471 126.968L169.246 115.92C170.097 115.416 170.717 115.819 170.717 116.835V117.467C170.69 118.017 170.543 118.552 170.287 119.03C170.032 119.507 169.675 119.912 169.246 120.213L151.471 131.261C150.663 131.765 150 131.353 150 130.346V129.714C150.028 129.164 150.175 128.629 150.431 128.152C150.686 127.675 151.042 127.269 151.471 126.968Z" fill="black"/>
<path d="M150.74 140.305L204.517 106.876C204.917 106.62 205.248 106.821 205.248 107.334V114.089C205.233 114.363 205.16 114.63 205.033 114.868C204.906 115.106 204.729 115.31 204.517 115.462L150.74 148.891C150.332 149.147 150 148.936 150 148.433V141.678C150.015 141.402 150.089 141.135 150.218 140.896C150.346 140.658 150.525 140.455 150.74 140.305Z" fill="#92E3A9"/>
<path opacity="0.2" d="M150.74 140.305L204.517 106.876C204.917 106.62 205.248 106.821 205.248 107.334V114.089C205.233 114.363 205.16 114.63 205.033 114.868C204.906 115.106 204.729 115.31 204.517 115.462L150.74 148.891C150.332 149.147 150 148.936 150 148.433V141.678C150.015 141.402 150.089 141.135 150.218 140.896C150.346 140.658 150.525 140.455 150.74 140.305Z" fill="white"/>
<path d="M151.471 157.019L169.246 145.971C170.097 145.467 170.717 145.879 170.717 146.886V147.518C170.691 148.068 170.544 148.604 170.288 149.081C170.033 149.558 169.676 149.964 169.246 150.264L151.471 161.312C150.663 161.825 150 161.413 150 160.397V159.765C150.029 159.215 150.177 158.681 150.432 158.204C150.688 157.727 151.043 157.321 151.471 157.019Z" fill="#92E3A9"/>
<path opacity="0.1" d="M151.471 157.019L169.246 145.971C170.097 145.467 170.717 145.879 170.717 146.886V147.518C170.691 148.068 170.544 148.604 170.288 149.081C170.033 149.558 169.676 149.964 169.246 150.264L151.471 161.312C150.663 161.825 150 161.413 150 160.397V159.765C150.029 159.215 150.177 158.681 150.432 158.204C150.688 157.727 151.043 157.321 151.471 157.019Z" fill="black"/>
<path d="M150.74 170.356L204.517 136.927C204.917 136.671 205.248 136.881 205.248 137.385V144.14C205.233 144.414 205.16 144.681 205.033 144.919C204.906 145.157 204.729 145.361 204.517 145.513L150.74 178.942C150.332 179.198 150 178.997 150 178.484V171.729C150.015 171.453 150.089 171.186 150.218 170.947C150.346 170.709 150.525 170.506 150.74 170.356Z" fill="#92E3A9"/>
<path opacity="0.2" d="M150.74 170.356L204.517 136.927C204.917 136.671 205.248 136.881 205.248 137.385V144.14C205.233 144.414 205.16 144.681 205.033 144.919C204.906 145.157 204.729 145.361 204.517 145.513L150.74 178.942C150.332 179.198 150 178.997 150 178.484V171.729C150.015 171.453 150.089 171.186 150.218 170.947C150.346 170.709 150.525 170.506 150.74 170.356Z" fill="white"/>
<path d="M172.188 174.191L193.44 161.001C194.29 160.488 194.92 160.9 194.92 161.916V168.983C194.892 169.534 194.743 170.07 194.486 170.547C194.229 171.024 193.871 171.429 193.44 171.729L172.188 184.928C171.338 185.431 170.717 185.02 170.717 184.013V176.937C170.747 176.388 170.895 175.853 171.15 175.376C171.406 174.9 171.761 174.494 172.188 174.191Z" fill="#92E3A9"/>
<path opacity="0.1" d="M172.188 174.191L193.44 161.001C194.29 160.488 194.92 160.9 194.92 161.916V168.983C194.892 169.534 194.743 170.07 194.486 170.547C194.229 171.024 193.871 171.429 193.44 171.729L172.188 184.928C171.338 185.431 170.717 185.02 170.717 184.013V176.937C170.747 176.388 170.895 175.853 171.15 175.376C171.406 174.9 171.761 174.494 172.188 174.191Z" fill="black"/>
<path d="M222.514 144.369C222.514 144.369 212.075 128.863 211.463 126.977C210.978 125.586 211.463 123.517 211.616 122.556C211.769 121.595 211.905 119.453 212.058 118.895C212.313 117.851 211.063 118.062 210.357 119.014C209.652 119.966 209.414 121.87 209.048 122.181C208.683 122.492 205.903 118.126 204.449 116.112C202.996 114.098 202.086 112.872 201.193 113.622C200.556 114.162 201.032 115.334 202.086 117.055C202.702 117.982 203.269 118.944 203.786 119.938C203.948 120.314 203.081 120.341 202.613 121.119C202.248 121.723 202.613 122.703 202.103 123.169C201.789 123.427 201.574 123.799 201.499 124.216C201.423 124.633 201.493 125.065 201.695 125.43C202.641 127.03 203.862 128.422 205.291 129.531C206.855 130.694 207.484 131.105 208.411 132.689C209.337 134.273 217.651 150.447 218.212 151.417C218.774 152.387 219.853 154.365 221.494 154.419C223.135 154.474 236.566 142.026 237.255 141.403C239.465 139.417 240.171 139.133 240.545 140.918C240.674 141.553 240.77 142.194 240.834 142.84C241.097 145.11 242.534 153.22 242.534 153.22C242.534 153.22 249.335 156.763 254.92 155.051C260.505 153.339 262.392 150.786 262.392 150.786L259.596 145.879C260.352 143.856 263.846 135.655 264.977 129.916L247.465 126.867C247.108 126.785 246.529 126.629 245.764 126.419C244.804 126.144 242.364 125.238 240.519 126.977C234.5 132.625 222.531 144.369 222.531 144.369" fill="#FFA8A7"/>
<path d="M257.232 239.51L254.095 244.206C255.521 244.923 257.079 245.283 258.652 245.259C261.466 245.369 262.239 244.343 262.341 244.142C262.817 243.044 262.078 241.066 261.874 239.364L257.232 239.51Z" fill="#37474F"/>
<path d="M254.274 241.954C254.274 241.954 250.465 241.689 247.839 241.341C245.212 240.993 243.129 242.366 243.741 243.529C244.353 244.691 245.807 245.661 248.068 246.476C249.998 247.181 252.319 247.684 254.325 248.307C256.331 248.929 257.725 249.744 258.89 249.305C260.191 248.819 260.752 248.261 260.641 247.236C260.357 245.778 260.005 244.336 259.587 242.915L254.274 241.954Z" fill="#37474F"/>
<path d="M262.341 234.796C262.341 234.796 261.865 239.062 261.831 239.977C261.797 240.892 257.963 241.185 257.232 239.51L257.113 234.293L262.341 234.796Z" fill="#F28F8F"/>
<path d="M258.482 237.414L259.851 243.895C259.851 243.895 259.978 244.682 256.85 245.185C253.721 245.689 248.808 243.419 247.966 242.961C247.125 242.504 247.031 241.579 250.108 241.762C253.186 241.945 254.274 241.954 254.274 241.954L253.271 239.089L258.482 237.414Z" fill="#FFA8A7"/>
<path d="M264.926 129.861L267.093 129.211C267.093 129.211 271.625 144.653 272.126 146.145C272.628 147.637 273.197 149.211 272.22 151.051C271.055 153.239 264.926 162.035 264.926 162.035L261.032 157.934L265.453 149.22L261.542 140.708L264.926 129.861Z" fill="#F28F8F"/>
<path d="M242.661 109.805C242.153 108.778 241.895 107.629 241.912 106.465C241.928 105.301 242.218 104.161 242.755 103.151C244.914 98.8394 249.726 96.7433 255.456 97.5396C258.108 97.9149 261.236 100.286 262.945 103.828C264.832 107.755 265.011 115.664 265.495 118.657L242.661 109.805Z" fill="#37474F"/>
<path d="M242.508 111.499C242.508 111.499 241.148 114.291 241.386 114.547C241.739 114.769 242.124 114.923 242.525 115.005L242.508 111.499Z" fill="#FFA8A7"/>
<path d="M246.64 102.675C245.161 103.709 242.61 105.613 242.5 111.883C242.381 118.291 243.231 120.405 244.115 121.146C244.71 121.65 248.204 121.394 249.7 121.018C251.197 120.643 255.507 118.346 257.062 114.858C258.89 110.757 258.516 104.789 255.804 102.959C254.424 102.08 252.859 101.593 251.256 101.543C249.653 101.493 248.065 101.883 246.64 102.675Z" fill="#FFA8A7"/>
<path d="M262.342 150.749C264.96 155.143 267.442 158.987 267.986 163.948C269.108 174.374 265.436 186.292 264.645 194.008C266.132 196.203 266.989 198.819 267.111 201.532C267.111 204.727 262.342 234.796 262.342 234.796C262.342 234.796 258.873 235.931 257.113 234.293L253.84 178.978L255.541 172.241L262.342 150.749Z" fill="#92E3A9"/>
<path opacity="0.2" d="M262.342 150.749C264.96 155.143 267.442 158.987 267.986 163.948C269.108 174.374 265.436 186.292 264.645 194.008C266.132 196.203 266.989 198.819 267.111 201.532C267.111 204.727 262.342 234.796 262.342 234.796C262.342 234.796 258.873 235.931 257.113 234.293L253.84 178.978L255.541 172.241L262.342 150.749Z" fill="black"/>
<path d="M253.84 178.978L255.541 172.241C258.796 171.319 261.936 169.975 264.892 168.241C264.892 168.241 263.124 171.71 258.04 173.614L255.413 182.264L255.192 202.082L253.84 178.978Z" fill="#92E3A9"/>
<path opacity="0.3" d="M253.84 178.978L255.541 172.241C258.796 171.319 261.936 169.975 264.892 168.241C264.892 168.241 263.124 171.71 258.04 173.614L255.413 182.264L255.192 202.082L253.84 178.978Z" fill="black"/>
<path d="M262.341 150.749C263.744 153.22 267.094 157.431 266.379 161.486C265.529 166.392 263.064 169.843 255.566 172.241L248.527 199.702C248.527 199.702 252.191 203.363 253.313 206.906C254.435 210.448 258.482 237.432 258.482 237.432C258.482 237.432 257.224 239.638 253.271 239.108C253.271 239.108 239.491 205.24 238.522 203.034C237.345 200.8 236.933 198.192 237.357 195.665C237.79 192.114 242.457 153.239 242.457 153.239L262.341 150.749Z" fill="#92E3A9"/>
<path opacity="0.2" d="M262.341 150.749C263.744 153.22 267.094 157.431 266.379 161.486C265.529 166.392 263.064 169.843 255.566 172.241L248.527 199.702C248.527 199.702 252.191 203.363 253.313 206.906C254.435 210.448 258.482 237.432 258.482 237.432C258.482 237.432 257.224 239.638 253.271 239.108C253.271 239.108 239.491 205.24 238.522 203.034C237.345 200.8 236.933 198.192 237.357 195.665C237.79 192.114 242.457 153.239 242.457 153.239L262.341 150.749Z" fill="black"/>
<path d="M264.926 129.861L247.413 126.813C247.056 126.73 246.478 126.575 245.713 126.364C245.713 126.364 244.965 138.19 240.468 140.9C240.579 141.467 240.672 142.099 240.757 142.822C241.021 145.092 242.457 153.202 242.457 153.202C242.457 153.202 249.258 156.744 254.843 155.033C260.429 153.321 262.316 150.767 262.316 150.767L259.519 145.861C260.301 143.82 263.821 135.618 264.926 129.861Z" fill="#92E3A9"/>
<path opacity="0.7" d="M264.926 129.861L247.413 126.813C247.056 126.73 246.478 126.575 245.713 126.364C245.713 126.364 244.965 138.19 240.468 140.9C240.579 141.467 240.672 142.099 240.757 142.822C241.021 145.092 242.457 153.202 242.457 153.202C242.457 153.202 249.258 156.744 254.843 155.033C260.429 153.321 262.316 150.767 262.316 150.767L259.519 145.861C260.301 143.82 263.821 135.618 264.926 129.861Z" fill="white"/>
<path d="M260.31 143.911C257.984 145.415 255.547 146.71 253.024 147.783C255.314 147.734 257.556 147.067 259.544 145.843L260.31 143.911Z" fill="#92E3A9"/>
<path d="M246.206 102.986C246.206 102.986 245.356 108.936 247.363 112.432C247.363 112.432 248.111 110.062 249.972 110.51C251.834 110.959 251.936 113.604 250.627 115.087C250.294 115.503 249.859 115.809 249.372 115.971C248.885 116.133 248.365 116.144 247.873 116.002C247.873 116.002 247.575 120.304 247.414 123.911C247.252 127.517 246.368 135.38 250.134 138.556C253.9 141.733 263.353 142.849 267.782 136.186C270.247 132.479 266.975 125.925 265.453 118.574C264.05 111.819 263.26 101.805 256.603 100.194C249.947 98.5831 246.206 102.986 246.206 102.986Z" fill="#37474F"/>
<path d="M270.63 21.6938L269.227 22.6091C269.345 22.0717 269.411 21.5226 269.423 20.9706C269.423 17.9042 267.425 16.6685 264.96 18.2246C264.21 18.7119 263.54 19.3306 262.979 20.0553C262.979 15.9362 260.293 14.2611 256.977 16.3207C255.23 17.5475 253.776 19.2005 252.734 21.1455C251.691 23.0905 251.088 25.2728 250.976 27.5154C250.976 27.7259 250.976 27.9273 250.976 28.1287C250.122 28.013 249.257 28.227 248.536 28.7328C247.237 29.6442 246.156 30.8727 245.38 32.3184C244.605 33.7641 244.157 35.3863 244.073 37.0533C244.072 37.4409 244.109 37.8274 244.183 38.2067L243.435 38.6735C241.403 39.9367 239.754 42.399 239.754 44.1656C239.754 45.9322 241.403 46.3533 243.435 45.0809L270.638 28.1927C272.67 26.9296 274.319 24.4673 274.319 22.7006C274.319 20.934 272.662 20.4214 270.63 21.6938Z" fill="#EBEBEB"/>
</svg>
