<svg width="30" height="30" viewBox="0 0 30 30" fill="none" xmlns="http://www.w3.org/2000/svg">
<path d="M27.1875 24.375C27.1875 24.6236 27.0887 24.8621 26.9129 25.0379C26.7371 25.2137 26.4986 25.3125 26.25 25.3125H3.75C3.50136 25.3125 3.2629 25.2137 3.08709 25.0379C2.91127 24.8621 2.8125 24.6236 2.8125 24.375V5.625C2.8125 5.37636 2.91127 5.1379 3.08709 4.96209C3.2629 4.78627 3.50136 4.6875 3.75 4.6875C3.99864 4.6875 4.2371 4.78627 4.41291 4.96209C4.58873 5.1379 4.6875 5.37636 4.6875 5.625V16.684L10.6324 11.4844C10.7942 11.3428 10.9997 11.2611 11.2146 11.253C11.4294 11.2448 11.6405 11.3108 11.8125 11.4398L18.7043 16.609L25.6324 10.5469C25.7233 10.457 25.8315 10.3866 25.9506 10.34C26.0696 10.2935 26.1969 10.2718 26.3247 10.2762C26.4524 10.2807 26.5779 10.3112 26.6934 10.3659C26.8089 10.4207 26.912 10.4984 26.9963 10.5945C27.0807 10.6905 27.1445 10.8028 27.1839 10.9244C27.2232 11.046 27.2373 11.1743 27.2253 11.3016C27.2132 11.4288 27.1753 11.5523 27.1138 11.6643C27.0522 11.7764 26.9685 11.8746 26.8676 11.9531L19.3676 18.5156C19.2058 18.6572 19.0003 18.7389 18.7854 18.747C18.5706 18.7552 18.3595 18.6892 18.1875 18.5602L11.2957 13.3934L4.6875 19.1754V23.4375H26.25C26.4986 23.4375 26.7371 23.5363 26.9129 23.7121C27.0887 23.8879 27.1875 24.1264 27.1875 24.375Z" fill="white"/>
</svg>
