<svg width="50" height="50" viewBox="0 0 50 50" fill="none" xmlns="http://www.w3.org/2000/svg">
<circle cx="25" cy="25" r="25" fill="#92E3A9" fill-opacity="0.29"/>
<path d="M22.4253 37.36C21.5133 37.36 20.6493 37.252 19.8333 37.036C19.0173 36.844 18.2733 36.556 17.6013 36.172C16.9293 35.764 16.3293 35.284 15.8013 34.732C15.2733 34.156 14.8173 33.52 14.4333 32.824L17.9253 29.188C18.2613 29.692 18.5853 30.112 18.8973 30.448C19.2093 30.76 19.5093 31.024 19.7973 31.24C20.1093 31.456 20.4213 31.612 20.7333 31.708C21.0693 31.804 21.4173 31.852 21.7773 31.852C22.3533 31.852 22.8573 31.72 23.2893 31.456C23.7453 31.168 24.0933 30.784 24.3333 30.304C24.5733 29.824 24.6933 29.26 24.6933 28.612V17.128H20.0853V11.8H34.5573V17.128H30.6693V29.332C30.6693 30.556 30.4533 31.66 30.0213 32.644C29.6133 33.628 29.0373 34.48 28.2933 35.2C27.5493 35.896 26.6733 36.436 25.6653 36.82C24.6813 37.18 23.6013 37.36 22.4253 37.36Z" fill="#0CBB5C"/>
</svg>
