<svg width="35" height="35" viewBox="0 0 35 35" fill="none" xmlns="http://www.w3.org/2000/svg">
<path d="M17.5 3.28125C14.6878 3.28125 11.9388 4.11517 9.60049 5.67754C7.26223 7.23992 5.43978 9.46058 4.36359 12.0587C3.28741 14.6569 3.00583 17.5158 3.55447 20.2739C4.1031 23.0321 5.4573 25.5656 7.44583 27.5542C9.43436 29.5427 11.9679 30.8969 14.7261 31.4455C17.4842 31.9942 20.3431 31.7126 22.9413 30.6364C25.5394 29.5602 27.7601 27.7378 29.3225 25.3995C30.8848 23.0613 31.7188 20.3122 31.7188 17.5C31.7148 13.7302 30.2155 10.1159 27.5498 7.45022C24.8841 4.78455 21.2698 3.28523 17.5 3.28125ZM13.8947 22.9688H21.1053C20.3711 25.4762 19.1406 27.7361 17.5 29.5162C15.8594 27.7361 14.6289 25.4762 13.8947 22.9688ZM13.3984 20.7812C13.0357 18.6088 13.0357 16.3912 13.3984 14.2188H21.6016C21.9643 16.3912 21.9643 18.6088 21.6016 20.7812H13.3984ZM5.46876 17.5C5.4678 16.3904 5.62103 15.2861 5.92403 14.2188H11.1822C10.8559 16.3941 10.8559 18.6059 11.1822 20.7812H5.92403C5.62103 19.7139 5.4678 18.6096 5.46876 17.5ZM21.1053 12.0312H13.8947C14.6289 9.52383 15.8594 7.26387 17.5 5.48379C19.1406 7.26387 20.3711 9.52383 21.1053 12.0312ZM23.8178 14.2188H29.076C29.683 16.3641 29.683 18.6359 29.076 20.7812H23.8178C24.1441 18.6059 24.1441 16.3941 23.8178 14.2188ZM28.2147 12.0312H23.3707C22.8125 9.83488 21.8752 7.75283 20.6008 5.87891C22.2289 6.31643 23.7474 7.08986 25.0587 8.14944C26.37 9.20901 27.445 10.5313 28.2147 12.0312ZM14.3992 5.87891C13.1249 7.75283 12.1875 9.83488 11.6293 12.0312H6.78536C7.55498 10.5313 8.63001 9.20901 9.9413 8.14944C11.2526 7.08986 12.7711 6.31643 14.3992 5.87891ZM6.78536 22.9688H11.6293C12.1875 25.1651 13.1249 27.2472 14.3992 29.1211C12.7711 28.6836 11.2526 27.9101 9.9413 26.8506C8.63001 25.791 7.55498 24.4687 6.78536 22.9688ZM20.6008 29.1211C21.8752 27.2472 22.8125 25.1651 23.3707 22.9688H28.2147C27.445 24.4687 26.37 25.791 25.0587 26.8506C23.7474 27.9101 22.2289 28.6836 20.6008 29.1211Z" fill="#0CBB5C"/>
</svg>
