<svg width="30" height="30" viewBox="0 0 30 30" fill="none" xmlns="http://www.w3.org/2000/svg">
<path d="M29.6596 21.9154C28.7922 20.5365 27.5029 16.6349 27.5029 11.539C27.5029 8.47864 26.1858 5.54366 23.8411 3.37968C21.4965 1.21571 18.3166 0 15.0008 0C11.685 0 8.50503 1.21571 6.16042 3.37968C3.81581 5.54366 2.49862 8.47864 2.49862 11.539C2.49862 16.6363 1.20777 20.5365 0.340435 21.9154C0.118945 22.2659 0.00152416 22.6642 1.47384e-05 23.07C-0.00149468 23.4758 0.112961 23.8748 0.331838 24.2268C0.550716 24.5787 0.866275 24.8712 1.24669 25.0746C1.62711 25.2781 2.05894 25.3854 2.49862 25.3857H8.87628C9.16473 26.6884 9.93182 27.8592 11.0478 28.7C12.1638 29.5408 13.5602 30 15.0008 30C16.4414 30 17.8378 29.5408 18.9538 28.7C20.0697 27.8592 20.8368 26.6884 21.1253 25.3857H27.5029C27.9425 25.3852 28.3741 25.2777 28.7543 25.0741C29.1345 24.8705 29.4499 24.578 29.6686 24.2261C29.8872 23.8742 30.0016 23.4753 30 23.0696C29.9984 22.664 29.881 22.2658 29.6596 21.9154ZM15.0008 27.6935C14.2254 27.6933 13.4691 27.4712 12.836 27.058C12.203 26.6447 11.7243 26.0605 11.4658 25.3857H18.5358C18.2773 26.0605 17.7986 26.6447 17.1655 27.058C16.5325 27.4712 15.7762 27.6933 15.0008 27.6935ZM2.49862 23.0779C3.70195 21.1682 4.99905 16.743 4.99905 11.539C4.99905 9.0907 6.0528 6.74272 7.92849 5.01154C9.80418 3.28036 12.3482 2.30779 15.0008 2.30779C17.6534 2.30779 20.1974 3.28036 22.0731 5.01154C23.9488 6.74272 25.0025 9.0907 25.0025 11.539C25.0025 16.7387 26.2965 21.1639 27.5029 23.0779H2.49862Z" fill="#0CBB5C"/>
<circle cx="17.1428" cy="4.28571" r="4.28571" fill="#EE2121"/>
</svg>
