<svg width="300" height="300" viewBox="0 0 300 300" fill="none" xmlns="http://www.w3.org/2000/svg">
<circle cx="150" cy="150" r="150" fill="#0CBB5C" fill-opacity="0.8"/>
<path d="M221.97 77.0777C220.549 76.1559 218.961 75.5229 217.296 75.215C215.631 74.907 213.922 74.9301 212.266 75.283C210.61 75.6358 209.04 76.3115 207.645 77.2714C206.25 78.2313 205.058 79.4566 204.136 80.8773L131.884 192.248L96.6468 159.668C95.4036 158.518 93.9461 157.625 92.3577 157.039C90.7692 156.452 89.0808 156.185 87.3889 156.251C83.972 156.385 80.7482 157.871 78.4266 160.381C76.1051 162.892 74.8761 166.222 75.0099 169.639C75.1437 173.056 76.6294 176.28 79.1401 178.601L125.406 221.377C125.406 221.377 126.734 222.521 127.349 222.92C128.769 223.843 130.358 224.476 132.023 224.785C133.689 225.093 135.399 225.07 137.055 224.717C138.712 224.364 140.283 223.688 141.678 222.728C143.073 221.768 144.265 220.542 145.187 219.121L225.769 94.911C226.691 93.4906 227.324 91.9026 227.632 90.2376C227.94 88.5726 227.917 86.8632 227.564 85.2072C227.211 83.5511 226.536 81.9808 225.576 80.5859C224.616 79.191 223.391 77.9989 221.97 77.0777Z" fill="white"/>
</svg>
