<svg width="350" height="350" viewBox="0 0 350 350" fill="none" xmlns="http://www.w3.org/2000/svg">
<path d="M315.62 176.746C315.62 254.218 252.816 317.021 175.344 317.021C97.8723 317.021 35.0688 254.218 35.0688 176.746C35.0688 99.2741 97.8723 36.4707 175.344 36.4707C252.816 36.4707 315.62 99.2741 315.62 176.746ZM82.365 176.746C82.365 228.097 123.993 269.725 175.344 269.725C226.695 269.725 268.323 228.097 268.323 176.746C268.323 125.395 226.695 83.7668 175.344 83.7668C123.993 83.7668 82.365 125.395 82.365 176.746Z" fill="#D9D9D9"/>
<path d="M32.2627 176.748C32.2627 147.125 41.6408 118.262 59.0529 94.2962C76.465 70.3305 101.017 52.4923 129.191 43.3382C157.364 34.1841 187.712 34.1841 215.886 43.3382C244.059 52.4923 268.611 70.3305 286.023 94.2962L247.76 122.096C236.219 106.211 219.945 94.3872 201.27 88.3195C182.596 82.2519 162.48 82.2519 143.806 88.3195C125.132 94.3872 108.858 106.211 97.3163 122.096C85.7749 137.981 79.5588 157.113 79.5588 176.748H32.2627Z" fill="#3A86FF" fill-opacity="0.79"/>
<path d="M286.501 94.9552C299.408 112.94 307.876 133.724 311.212 155.608C314.548 177.492 312.657 199.855 305.694 220.868C298.731 241.882 286.894 260.949 271.15 276.511C255.406 292.072 236.203 303.687 215.11 310.406L200.756 265.34C214.737 260.887 227.466 253.188 237.902 242.873C248.337 232.558 256.183 219.92 260.799 205.992C265.414 192.063 266.667 177.24 264.456 162.735C262.245 148.229 256.632 134.453 248.077 122.532L286.501 94.9552Z" fill="#EE2121"/>
<path d="M220.123 307.819C190.647 317.833 158.677 317.758 129.248 307.604C99.8198 297.45 74.6049 277.796 57.5749 251.736L97.1667 225.863C108.455 243.136 125.168 256.164 144.674 262.894C164.181 269.624 185.371 269.674 204.909 263.037L220.123 307.819Z" fill="#814842"/>
<path d="M62.9114 257.252C40.6496 229.37 29.8486 194.054 32.7067 158.49L79.8508 162.279C77.9564 185.852 85.1157 209.261 99.8715 227.741L62.9114 257.252Z" fill="#0CBB5C"/>
</svg>
