<svg width="300" height="300" viewBox="0 0 300 300" fill="none" xmlns="http://www.w3.org/2000/svg">
<path d="M20.9069 172.605L25.7407 169.669C25.7407 169.669 28.6186 157.088 27.4736 145.776C25.8582 129.862 15.8999 123.874 12.1122 125.247C8.32441 126.62 7.22893 131.248 13.4985 140.725C17.1934 146.316 21.7363 157.96 20.9069 172.605Z" fill="#92E3A9"/>
<g opacity="0.65">
<path d="M20.9069 172.605L25.7407 169.669C25.7407 169.669 28.6186 157.088 27.4736 145.776C25.8582 129.862 15.8999 123.874 12.1122 125.247C8.32441 126.62 7.22893 131.248 13.4985 140.725C17.1934 146.316 21.7363 157.96 20.9069 172.605Z" fill="white"/>
</g>
<path d="M22.9122 166.428H22.8627C22.7757 166.41 22.6989 166.357 22.649 166.281C22.5991 166.204 22.5802 166.109 22.5965 166.018C25.2455 151.308 20.3746 134.841 14.334 127.981C14.2741 127.912 14.2427 127.82 14.2468 127.727C14.2509 127.634 14.29 127.546 14.3557 127.483C14.4214 127.42 14.5081 127.387 14.5969 127.391C14.6857 127.395 14.7693 127.436 14.8292 127.506C20.975 134.489 25.9696 151.249 23.2526 166.141C23.2378 166.224 23.1954 166.298 23.1329 166.351C23.0704 166.403 22.9921 166.431 22.9122 166.428Z" fill="white"/>
<path d="M8.73286 179.992C8.01492 180.382 6.09009 178.651 5.55783 178.235C4.64115 177.502 3.91873 176.533 3.45971 175.423C2.94222 174.164 2.81236 172.767 3.08836 171.426C3.23597 170.719 3.43037 170.023 3.67014 169.344C3.88676 168.693 4.10338 168.003 4.32619 167.326C4.58452 166.677 4.71506 165.979 4.70991 165.276C4.6047 163.87 3.47209 162.828 2.4385 161.924C1.29351 160.921 0.117573 159.626 0.204221 157.94C0.35445 156.636 0.911646 155.42 1.78864 154.484C2.59942 153.508 3.55255 152.649 4.30143 151.614C4.88574 150.884 5.21353 149.964 5.2298 149.01C5.18402 148.428 5.02609 147.861 4.76562 147.344C4.16459 146.266 3.64715 145.138 3.21833 143.973C2.89031 142.775 3.01409 141.311 3.93008 140.51C4.33674 140.226 4.79258 140.03 5.27153 139.931C5.75048 139.833 6.24315 139.835 6.72139 139.937C7.62579 140.104 8.48513 140.475 9.24037 141.024C11.716 142.645 13.0157 145.893 15.6585 147.181C16.7126 147.587 17.7895 147.924 18.883 148.19C19.4309 148.329 19.9454 148.585 20.3939 148.944C20.8425 149.302 21.2153 149.755 21.4887 150.273C22.3799 152.408 20.418 154.881 21.0059 157.127C21.532 159.079 23.3021 159.958 24.2305 161.774C24.6102 162.58 24.7338 163.492 24.5832 164.377C24.4232 165.868 24.0036 167.316 23.3454 168.647C22.6066 170.015 21.7902 171.334 20.9007 172.598C20.9007 172.598 8.84426 179.946 8.73286 179.992Z" fill="#92E3A9"/>
<g opacity="0.3">
<path d="M8.73286 179.992C8.01492 180.382 6.09009 178.651 5.55783 178.235C4.64115 177.502 3.91873 176.533 3.45971 175.423C2.94222 174.164 2.81236 172.767 3.08836 171.426C3.23597 170.719 3.43037 170.023 3.67014 169.344C3.88676 168.693 4.10338 168.003 4.32619 167.326C4.58452 166.677 4.71506 165.979 4.70991 165.276C4.6047 163.87 3.47209 162.828 2.4385 161.924C1.29351 160.921 0.117573 159.626 0.204221 157.94C0.35445 156.636 0.911646 155.42 1.78864 154.484C2.59942 153.508 3.55255 152.649 4.30143 151.614C4.88574 150.884 5.21353 149.964 5.2298 149.01C5.18402 148.428 5.02609 147.861 4.76562 147.344C4.16459 146.266 3.64715 145.138 3.21833 143.973C2.89031 142.775 3.01409 141.311 3.93008 140.51C4.33674 140.226 4.79258 140.03 5.27153 139.931C5.75048 139.833 6.24315 139.835 6.72139 139.937C7.62579 140.104 8.48513 140.475 9.24037 141.024C11.716 142.645 13.0157 145.893 15.6585 147.181C16.7126 147.587 17.7895 147.924 18.883 148.19C19.4309 148.329 19.9454 148.585 20.3939 148.944C20.8425 149.302 21.2153 149.755 21.4887 150.273C22.3799 152.408 20.418 154.881 21.0059 157.127C21.532 159.079 23.3021 159.958 24.2305 161.774C24.6102 162.58 24.7338 163.492 24.5832 164.377C24.4232 165.868 24.0036 167.316 23.3454 168.647C22.6066 170.015 21.7902 171.334 20.9007 172.598C20.9007 172.598 8.84426 179.946 8.73286 179.992Z" fill="white"/>
</g>
<path d="M15.7328 176.158C15.6485 176.15 15.5707 176.107 15.5162 176.039C15.4617 175.971 15.4351 175.883 15.4419 175.794C16.5993 162.594 11.3757 147.676 7.26609 143.205C7.20782 143.141 7.17606 143.055 7.1778 142.967C7.17954 142.878 7.21464 142.794 7.27538 142.733C7.33611 142.671 7.41751 142.638 7.50166 142.64C7.58581 142.642 7.66582 142.679 7.72409 142.742C11.9141 147.299 17.2492 162.47 16.0732 175.852C16.0701 175.896 16.0588 175.939 16.04 175.978C16.0212 176.017 15.9952 176.051 15.9635 176.08C15.9319 176.108 15.8952 176.13 15.8556 176.143C15.816 176.157 15.7743 176.162 15.7328 176.158Z" fill="white"/>
<path d="M14.4888 159.886H14.396C11.4573 158.856 8.42152 158.162 5.34127 157.817C5.30001 157.813 5.25979 157.802 5.22299 157.782C5.18619 157.762 5.15355 157.734 5.12701 157.701C5.10047 157.668 5.08056 157.629 5.06846 157.587C5.05636 157.546 5.05232 157.502 5.05657 157.459C5.05787 157.414 5.06818 157.37 5.08682 157.329C5.10546 157.289 5.13201 157.253 5.16474 157.224C5.19746 157.195 5.23561 157.174 5.2767 157.162C5.31779 157.149 5.36088 157.146 5.40316 157.153C8.53506 157.491 11.6229 158.185 14.6126 159.223C14.6813 159.253 14.7379 159.307 14.7729 159.376C14.8079 159.445 14.819 159.525 14.8044 159.601C14.7898 159.678 14.7504 159.747 14.6929 159.797C14.6353 159.846 14.5632 159.873 14.4888 159.873V159.886Z" fill="white"/>
<path d="M279.093 172.605L274.259 169.669C274.259 169.669 271.381 157.088 272.526 145.776C274.142 129.862 284.1 123.874 287.888 125.247C291.676 126.62 292.771 131.248 286.501 140.725C282.807 146.316 278.264 157.96 279.093 172.605Z" fill="#92E3A9"/>
<g opacity="0.65">
<path d="M279.093 172.605L274.259 169.669C274.259 169.669 271.381 157.088 272.526 145.776C274.142 129.862 284.1 123.874 287.888 125.247C291.676 126.62 292.771 131.248 286.501 140.725C282.807 146.316 278.264 157.96 279.093 172.605Z" fill="white"/>
</g>
<path d="M277.088 166.428H277.137C277.224 166.41 277.301 166.357 277.351 166.281C277.401 166.204 277.42 166.109 277.404 166.018C274.755 151.34 279.625 134.847 285.666 127.987C285.726 127.918 285.757 127.827 285.753 127.733C285.749 127.64 285.71 127.552 285.644 127.489C285.579 127.426 285.492 127.393 285.403 127.397C285.314 127.402 285.231 127.443 285.171 127.512C279.025 134.496 274.03 151.256 276.747 166.148C276.764 166.229 276.807 166.302 276.869 166.353C276.931 166.405 277.009 166.431 277.088 166.428Z" fill="white"/>
<path d="M291.267 179.992C291.985 180.382 293.91 178.651 294.442 178.235C295.359 177.502 296.081 176.533 296.54 175.423C297.058 174.164 297.188 172.767 296.912 171.426C296.764 170.719 296.57 170.023 296.33 169.344C296.113 168.693 295.897 168.003 295.674 167.326C295.415 166.677 295.285 165.979 295.29 165.276C295.395 163.87 296.528 162.828 297.562 161.924C298.706 160.921 299.882 159.626 299.796 157.94C299.646 156.636 299.088 155.42 298.211 154.484C297.401 153.508 296.447 152.649 295.699 151.614C295.114 150.884 294.786 149.964 294.77 149.01C294.816 148.428 294.974 147.861 295.234 147.344C295.835 146.266 296.353 145.138 296.782 143.973C297.11 142.775 296.986 141.311 296.07 140.51C295.663 140.226 295.207 140.03 294.728 139.931C294.25 139.833 293.757 139.835 293.279 139.937C292.374 140.104 291.515 140.475 290.76 141.024C288.284 142.645 286.984 145.893 284.341 147.181C283.287 147.587 282.211 147.924 281.117 148.19C280.569 148.329 280.055 148.585 279.606 148.944C279.158 149.302 278.785 149.755 278.511 150.273C277.62 152.408 279.582 154.881 278.994 157.127C278.468 159.079 276.698 159.958 275.77 161.774C275.39 162.58 275.266 163.492 275.417 164.377C275.577 165.868 275.996 167.316 276.655 168.647C277.393 170.015 278.21 171.334 279.099 172.598C279.099 172.598 291.156 179.946 291.267 179.992Z" fill="#92E3A9"/>
<g opacity="0.3">
<path d="M291.267 179.992C291.985 180.382 293.91 178.651 294.442 178.235C295.359 177.502 296.081 176.533 296.54 175.423C297.058 174.164 297.188 172.767 296.912 171.426C296.764 170.719 296.57 170.023 296.33 169.344C296.113 168.693 295.897 168.003 295.674 167.326C295.415 166.677 295.285 165.979 295.29 165.276C295.395 163.87 296.528 162.828 297.562 161.924C298.706 160.921 299.882 159.626 299.796 157.94C299.646 156.636 299.088 155.42 298.211 154.484C297.401 153.508 296.447 152.649 295.699 151.614C295.114 150.884 294.786 149.964 294.77 149.01C294.816 148.428 294.974 147.861 295.234 147.344C295.835 146.266 296.353 145.138 296.782 143.973C297.11 142.775 296.986 141.311 296.07 140.51C295.663 140.226 295.207 140.03 294.728 139.931C294.25 139.833 293.757 139.835 293.279 139.937C292.374 140.104 291.515 140.475 290.76 141.024C288.284 142.645 286.984 145.893 284.341 147.181C283.287 147.587 282.211 147.924 281.117 148.19C280.569 148.329 280.055 148.585 279.606 148.944C279.158 149.302 278.785 149.755 278.511 150.273C277.62 152.408 279.582 154.881 278.994 157.127C278.468 159.079 276.698 159.958 275.77 161.774C275.39 162.58 275.266 163.492 275.417 164.377C275.577 165.868 275.996 167.316 276.655 168.647C277.393 170.015 278.21 171.334 279.099 172.598C279.099 172.598 291.156 179.946 291.267 179.992Z" fill="white"/>
</g>
<path d="M284.267 176.158C284.352 176.15 284.429 176.107 284.484 176.039C284.538 175.971 284.565 175.883 284.558 175.794C283.401 162.594 288.624 147.676 292.734 143.205C292.792 143.141 292.824 143.055 292.822 142.967C292.82 142.878 292.785 142.794 292.725 142.733C292.664 142.671 292.582 142.638 292.498 142.64C292.414 142.642 292.334 142.679 292.276 142.742C288.086 147.299 282.751 162.47 283.927 175.852C283.93 175.896 283.941 175.939 283.96 175.978C283.979 176.017 284.005 176.051 284.036 176.08C284.068 176.108 284.105 176.13 284.144 176.143C284.184 176.157 284.226 176.162 284.267 176.158Z" fill="white"/>
<path d="M285.542 159.886H285.635C288.564 158.858 291.589 158.164 294.659 157.817C294.7 157.813 294.74 157.802 294.777 157.782C294.814 157.762 294.847 157.734 294.873 157.701C294.9 157.668 294.92 157.629 294.932 157.587C294.944 157.546 294.948 157.502 294.944 157.459C294.942 157.414 294.932 157.37 294.913 157.329C294.895 157.289 294.868 157.253 294.835 157.224C294.803 157.195 294.764 157.174 294.723 157.162C294.682 157.149 294.639 157.146 294.597 157.153C291.465 157.491 288.377 158.185 285.388 159.223C285.319 159.253 285.262 159.307 285.227 159.376C285.192 159.445 285.181 159.525 285.196 159.601C285.21 159.678 285.25 159.747 285.307 159.797C285.365 159.846 285.437 159.873 285.511 159.873L285.542 159.886Z" fill="white"/>
<path d="M150 300C232.843 300 300 259.224 300 208.923C300 158.623 232.843 117.847 150 117.847C67.1573 117.847 0 158.623 0 208.923C0 259.224 67.1573 300 150 300Z" fill="#F5F5F5"/>
<path d="M115.465 224.694L158.25 198.718L105.395 166.63L62.6093 192.606L115.465 224.694Z" fill="#E0E0E0"/>
<path d="M176.774 281.301L216.589 257.127L176.774 232.954L136.966 257.127L176.774 281.301Z" fill="#E0E0E0"/>
<path d="M237.521 246.355C256.703 246.355 272.254 236.914 272.254 225.267C272.254 213.62 256.703 204.179 237.521 204.179C218.338 204.179 202.787 213.62 202.787 225.267C202.787 236.914 218.338 246.355 237.521 246.355Z" fill="#E0E0E0"/>
<path d="M56.8782 250.098C81.0652 250.098 100.673 238.194 100.673 223.51C100.673 208.825 81.0652 196.921 56.8782 196.921C32.6913 196.921 13.0839 208.825 13.0839 223.51C13.0839 238.194 32.6913 250.098 56.8782 250.098Z" fill="#E0E0E0"/>
<path d="M8.10776 39.5272C8.03391 39.5277 7.96126 39.5075 7.89733 39.4686C7.83118 39.43 7.77615 39.3733 7.73803 39.3046C7.6999 39.2359 7.6801 39.1576 7.68071 39.0781V24.2056C7.6801 24.1261 7.6999 24.0478 7.73803 23.9791C7.77615 23.9104 7.83118 23.8537 7.89733 23.8151L20.0652 16.4277C20.1294 16.3863 20.2033 16.3643 20.2787 16.3643C20.3541 16.3643 20.428 16.3863 20.4922 16.4277C20.5568 16.4677 20.6102 16.5248 20.6472 16.5933C20.6841 16.6619 20.7032 16.7394 20.7027 16.8182V31.6972C20.7028 31.7758 20.6828 31.853 20.6446 31.9205C20.6065 31.9881 20.5517 32.0437 20.486 32.0812L8.32438 39.4686C8.25798 39.5069 8.18349 39.5271 8.10776 39.5272ZM8.53481 24.4595V38.3035L19.8486 31.4368V17.5928L8.53481 24.4595Z" fill="#E0E0E0"/>
<path d="M8.10776 64.8136C8.03293 64.8151 7.95947 64.7924 7.89733 64.7485C7.83167 64.711 7.77687 64.6555 7.73874 64.5879C7.70061 64.5203 7.68056 64.4431 7.68071 64.3645V49.4856C7.6801 49.406 7.6999 49.3277 7.73803 49.259C7.77615 49.1903 7.83118 49.1337 7.89733 49.095L20.0652 41.7076C20.1305 41.6695 20.204 41.6494 20.2787 41.6494C20.3534 41.6494 20.4269 41.6695 20.4922 41.7076C20.5568 41.7476 20.6102 41.8047 20.6472 41.8733C20.6841 41.9418 20.7032 42.0194 20.7027 42.0982V56.9771C20.7026 57.0565 20.6825 57.1345 20.6445 57.2031C20.6064 57.2717 20.5518 57.3285 20.486 57.3676L8.32438 64.742C8.26036 64.7876 8.18506 64.8125 8.10776 64.8136ZM8.53481 49.772V63.6095L19.8486 56.7428V42.8727L8.53481 49.772Z" fill="#E0E0E0"/>
<path d="M14.0432 57.8557L11.2148 54.9918L12.1555 52.883L13.7709 54.5102L20.746 38.9934L21.9653 40.2235L14.0432 57.8557Z" fill="#92E3A9"/>
<path d="M8.10775 90.126C8.03389 90.1265 7.96125 90.1063 7.89731 90.0674C7.83202 90.0278 7.77769 89.9709 7.73969 89.9024C7.7017 89.8339 7.68137 89.7562 7.68069 89.6769V74.7654C7.68074 74.686 7.70081 74.608 7.73887 74.5394C7.77692 74.4708 7.8316 74.414 7.89731 74.3749L20.0652 66.9875C20.1295 66.9534 20.201 66.937 20.273 66.9398C20.345 66.9426 20.4151 66.9646 20.4769 67.0035C20.5386 67.0425 20.59 67.0973 20.6263 67.1628C20.6625 67.2282 20.6824 67.3023 20.6841 67.378V82.257C20.6847 82.3365 20.6649 82.4148 20.6268 82.4835C20.5886 82.5522 20.5336 82.6089 20.4675 82.6475L8.32437 90.0349C8.26099 90.0847 8.18629 90.1161 8.10775 90.126ZM8.5348 75.0583V88.8959L19.8485 82.0291V68.159L8.5348 75.0583Z" fill="#E0E0E0"/>
<path d="M291.676 39.4686L279.514 32.0812C279.448 32.0437 279.394 31.9881 279.355 31.9205C279.317 31.853 279.297 31.7758 279.297 31.6972V16.8182C279.297 16.7394 279.316 16.6619 279.353 16.5933C279.39 16.5248 279.443 16.4677 279.508 16.4277C279.572 16.3863 279.646 16.3643 279.721 16.3643C279.797 16.3643 279.871 16.3863 279.935 16.4277L292.103 23.8151C292.169 23.8537 292.224 23.9104 292.262 23.9791C292.3 24.0478 292.32 24.1261 292.319 24.2056V39.0781C292.32 39.1576 292.3 39.2359 292.262 39.3046C292.224 39.3733 292.169 39.43 292.103 39.4686C292.039 39.5075 291.966 39.5277 291.892 39.5272C291.817 39.5271 291.742 39.5069 291.676 39.4686ZM280.151 17.5928V31.4368L291.465 38.3035V24.4595L280.151 17.5928Z" fill="#E0E0E0"/>
<path d="M291.676 64.742L279.514 57.3611C279.448 57.322 279.394 57.2652 279.356 57.1966C279.317 57.128 279.297 57.05 279.297 56.9706V42.0982C279.297 42.0194 279.316 41.9418 279.353 41.8733C279.39 41.8047 279.443 41.7476 279.508 41.7076C279.573 41.6695 279.647 41.6494 279.721 41.6494C279.796 41.6494 279.87 41.6695 279.935 41.7076L292.103 49.1211C292.169 49.1597 292.224 49.2163 292.262 49.2851C292.3 49.3538 292.32 49.432 292.319 49.5116V64.3906C292.319 64.4692 292.299 64.5463 292.261 64.6139C292.223 64.6815 292.168 64.737 292.103 64.7746C292.041 64.8184 291.967 64.8412 291.892 64.8397C291.812 64.831 291.737 64.7969 291.676 64.742ZM280.151 42.8727V56.7168L291.465 63.5835V49.772L280.151 42.8727Z" fill="#E0E0E0"/>
<path d="M291.676 90.0349L279.514 82.6475C279.448 82.6089 279.393 82.5522 279.355 82.4835C279.317 82.4148 279.297 82.3365 279.297 82.257V67.378C279.299 67.3023 279.319 67.2282 279.355 67.1628C279.391 67.0973 279.443 67.0425 279.505 67.0035C279.566 66.9646 279.636 66.9426 279.708 66.9398C279.78 66.937 279.852 66.9534 279.916 66.9875L292.103 74.3749C292.168 74.414 292.223 74.4708 292.261 74.5394C292.299 74.608 292.319 74.686 292.319 74.7654V89.6444C292.319 89.7236 292.298 89.8014 292.26 89.8699C292.222 89.9384 292.168 89.9952 292.103 90.0349C292.039 90.0738 291.966 90.094 291.892 90.0935C291.817 90.0933 291.742 90.0732 291.676 90.0349ZM280.151 68.159V81.9966L291.465 88.8633V75.0258L280.151 68.159Z" fill="#E0E0E0"/>
<path d="M285.233 82.231L282.404 75.9305L283.71 74.6157L285.598 78.8464L292.208 72.1424L293.155 74.2187L285.233 82.231Z" fill="#92E3A9"/>
<path d="M117.909 23.0861L105.742 15.7117C105.677 15.6728 105.624 15.6168 105.587 15.5494C105.55 15.482 105.531 15.4055 105.531 15.3277V0.448749C105.532 0.36946 105.552 0.291727 105.59 0.223236C105.628 0.154745 105.682 0.0978665 105.748 0.0582236C105.813 0.0200387 105.886 0 105.961 0C106.036 0 106.109 0.0200387 106.175 0.0582236L118.336 7.46516C118.401 7.50512 118.454 7.56224 118.491 7.63079C118.528 7.69934 118.547 7.7769 118.547 7.85568V22.7086C118.547 22.7874 118.528 22.8649 118.491 22.9335C118.454 23.002 118.401 23.0592 118.336 23.0991C118.27 23.1394 118.196 23.1618 118.12 23.1642C118.044 23.1579 117.972 23.131 117.909 23.0861ZM106.385 1.22329V15.0674L117.693 21.9341V8.11603L106.385 1.22329Z" fill="#E0E0E0"/>
<path d="M111.844 16.1413L109.016 9.84083L110.321 8.52607L112.209 12.7567L118.819 6.05275L119.766 8.12903L111.844 16.1413Z" fill="#92E3A9"/>
<path d="M136.774 34.548L124.624 27.1606C124.559 27.123 124.504 27.0675 124.466 26.9999C124.428 26.9323 124.408 26.8552 124.408 26.7766V11.8976C124.407 11.8188 124.426 11.7413 124.463 11.6727C124.5 11.6042 124.554 11.547 124.618 11.5071C124.684 11.4689 124.757 11.4489 124.832 11.4489C124.907 11.4489 124.98 11.4689 125.045 11.5071L137.213 18.8945C137.279 18.9331 137.334 18.9897 137.372 19.0585C137.411 19.1272 137.43 19.2054 137.43 19.285V34.1509C137.427 34.2697 137.381 34.3827 137.302 34.4673C137.222 34.5519 137.116 34.6017 137.003 34.6066C136.923 34.6084 136.844 34.5882 136.774 34.548ZM125.243 12.6721V26.5162L136.557 33.3829V19.5388L125.243 12.6721Z" fill="#E0E0E0"/>
<path d="M155.62 45.9968L143.458 38.6159C143.392 38.5768 143.338 38.52 143.3 38.4514C143.262 38.3828 143.242 38.3048 143.241 38.2254V23.3465C143.241 23.2677 143.26 23.1901 143.297 23.1216C143.334 23.053 143.387 22.9959 143.452 22.9559C143.517 22.9177 143.591 22.8977 143.665 22.8977C143.74 22.8977 143.814 22.9177 143.879 22.9559L156.047 30.3433C156.113 30.3819 156.168 30.4386 156.206 30.5073C156.244 30.576 156.264 30.6543 156.263 30.7339V45.6128C156.264 45.6914 156.244 45.7686 156.205 45.8362C156.167 45.9038 156.112 45.9593 156.047 45.9968C155.984 46.0399 155.911 46.0626 155.836 46.0619C155.76 46.0627 155.684 46.0401 155.62 45.9968ZM144.096 24.121V37.9651L155.409 44.8318V30.9942L144.096 24.121Z" fill="#E0E0E0"/>
<path d="M107.437 83.871L73.2547 190.328L70.81 191.812L104.999 85.355L107.437 83.871Z" fill="#455A64"/>
<path d="M70.8099 191.812L69.603 191.083L103.786 84.6195L104.999 85.355L70.8099 191.812Z" fill="#263238"/>
<path d="M104.999 171.055L103.786 170.326L69.603 105.382L70.8099 106.111L104.999 171.055Z" fill="#263238"/>
<path d="M73.2546 104.627L107.437 169.571L104.999 171.055L70.8099 106.111L73.2546 104.627Z" fill="#455A64"/>
<path d="M115.997 130.584V133.552L152.624 111.312V108.35L115.997 130.584Z" fill="#455A64"/>
<path d="M115.997 130.584V133.552L69.603 105.382V102.414L115.997 130.584Z" fill="#37474F"/>
<path d="M152.624 111.312L118.442 217.775L115.997 219.253L150.186 112.796L152.624 111.312Z" fill="#455A64"/>
<path d="M115.997 219.253L114.79 218.524L148.973 112.06L150.186 112.796L115.997 219.253Z" fill="#263238"/>
<path d="M150.186 198.496L148.973 197.767L114.79 132.823L115.997 133.552L150.186 198.496Z" fill="#263238"/>
<path d="M118.442 132.068L152.624 197.012L150.186 198.496L115.997 133.552L118.442 132.068Z" fill="#455A64"/>
<path d="M106.23 26.8026L96.4515 32.7386C88.2859 37.6972 81.5057 44.8294 76.7927 53.4179C72.0797 62.0065 69.6 71.7486 69.603 81.6647V102.434L72.0416 103.918L108.669 81.6647V28.2931L106.23 26.8026Z" fill="#92E3A9"/>
<path opacity="0.6" d="M106.23 26.8026L96.4515 32.7386C88.2859 37.6972 81.5057 44.8294 76.7927 53.4179C72.0797 62.0065 69.6 71.7486 69.603 81.6647V102.434L72.0416 103.918L108.669 81.6647V28.2931L106.23 26.8026Z" fill="white"/>
<path opacity="0.6" d="M73.5703 60.3486L108.669 81.6647V28.2931L106.23 26.8091L96.4516 32.7451C86.1197 39.0167 78.0688 48.7292 73.5703 60.3486Z" fill="white"/>
<path d="M72.0168 103.898V83.1291C72.0171 73.2155 74.499 63.4767 79.213 54.8918C83.927 46.3068 90.7071 39.1781 98.8715 34.2225L108.669 28.293V81.6646L72.0168 103.898Z" fill="#92E3A9"/>
<path opacity="0.7" d="M72.0168 103.898V83.1291C72.0171 73.2155 74.499 63.4767 79.213 54.8918C83.927 46.3068 90.7071 39.1781 98.8715 34.2225L108.669 28.293V81.6646L72.0168 103.898Z" fill="white"/>
<path d="M113.558 126.139L72.0416 100.931L108.669 78.6967L150.186 103.898L113.558 126.139Z" fill="#92E3A9"/>
<path opacity="0.8" d="M113.558 126.139L72.0416 100.931L108.669 78.6967L150.186 103.898L113.558 126.139Z" fill="white"/>
<path d="M113.558 129.107V126.139L72.0416 100.93V103.898L113.558 129.107Z" fill="#92E3A9"/>
<path opacity="0.6" d="M113.558 129.107V126.139L72.0416 100.93V103.898L113.558 129.107Z" fill="white"/>
<path opacity="0.3" d="M85.8186 102.148L102.913 112.529L124.891 99.1861L107.796 88.8047L85.8186 102.148Z" fill="#92E3A9"/>
<path d="M85.8186 101.093L102.913 111.468L124.891 98.1252L107.796 87.7503L85.8186 101.093Z" fill="#FAFAFA"/>
<path d="M115.118 101.249C115.094 101.255 115.068 101.255 115.044 101.249L112.605 99.7654C112.582 99.7519 112.563 99.7321 112.549 99.7081C112.536 99.684 112.529 99.6566 112.529 99.6287C112.529 99.6008 112.536 99.5734 112.549 99.5494C112.563 99.5254 112.582 99.5056 112.605 99.4921L115.044 98.0081C115.066 97.995 115.092 97.9881 115.118 97.9881C115.144 97.9881 115.169 97.995 115.192 98.0081L117.668 99.4921C117.691 99.5056 117.71 99.5254 117.724 99.5494C117.737 99.5734 117.745 99.6008 117.745 99.6287C117.745 99.6566 117.737 99.684 117.724 99.7081C117.71 99.7321 117.691 99.7519 117.668 99.7654L115.192 101.249C115.168 101.256 115.142 101.256 115.118 101.249ZM112.977 99.6092L115.118 100.911L117.259 99.6092L115.118 98.3075L112.977 99.6092Z" fill="#92E3A9"/>
<path d="M110.235 104.217H110.16L107.722 102.733C107.699 102.719 107.679 102.7 107.665 102.676C107.651 102.652 107.643 102.625 107.641 102.597C107.641 102.568 107.649 102.54 107.663 102.516C107.677 102.492 107.698 102.472 107.722 102.46L110.16 100.976C110.182 100.96 110.208 100.951 110.235 100.951C110.261 100.951 110.287 100.96 110.309 100.976L112.754 102.46C112.777 102.474 112.795 102.494 112.808 102.518C112.821 102.542 112.828 102.569 112.828 102.597C112.827 102.624 112.819 102.65 112.806 102.674C112.793 102.698 112.775 102.718 112.754 102.733L110.309 104.217C110.285 104.224 110.259 104.224 110.235 104.217ZM108.093 102.577L110.235 103.879L112.376 102.577L110.235 101.275L108.093 102.577Z" fill="#92E3A9"/>
<path d="M105.351 107.179C105.327 107.185 105.302 107.185 105.277 107.179L102.802 105.695C102.779 105.681 102.76 105.661 102.747 105.637C102.734 105.613 102.727 105.586 102.727 105.558C102.729 105.531 102.736 105.504 102.749 105.481C102.762 105.457 102.78 105.437 102.802 105.421L105.277 103.937C105.3 103.924 105.326 103.917 105.351 103.917C105.377 103.917 105.403 103.924 105.426 103.937L107.901 105.421C107.923 105.437 107.941 105.457 107.954 105.481C107.967 105.504 107.974 105.531 107.976 105.558C107.976 105.586 107.969 105.613 107.956 105.637C107.943 105.661 107.924 105.681 107.901 105.695L105.426 107.179C105.401 107.185 105.376 107.185 105.351 107.179ZM103.21 105.539L105.351 106.84L107.493 105.539L105.351 104.237L103.21 105.539Z" fill="#92E3A9"/>
<path d="M111.435 97.7282C111.384 97.7277 111.333 97.7143 111.287 97.6891L103.959 93.2436C103.89 93.2002 103.84 93.1306 103.82 93.0492C103.799 92.9679 103.809 92.8813 103.848 92.8076C103.889 92.7352 103.956 92.683 104.033 92.6622C104.111 92.6415 104.193 92.654 104.262 92.6969L111.584 97.1424C111.642 97.1761 111.688 97.2293 111.714 97.2934C111.74 97.3575 111.744 97.4289 111.727 97.4963C111.71 97.5636 111.672 97.623 111.619 97.6651C111.566 97.7071 111.502 97.7293 111.435 97.7282Z" fill="#E0E0E0"/>
<path d="M106.571 100.67C106.519 100.667 106.468 100.652 106.422 100.625L99.1005 96.1791C99.0381 96.1339 98.994 96.0658 98.9769 95.9882C98.9598 95.9105 98.971 95.8289 99.0083 95.7595C99.0456 95.6901 99.1062 95.6379 99.1783 95.6132C99.2503 95.5884 99.3286 95.593 99.3976 95.6259L106.726 100.078C106.759 100.099 106.789 100.126 106.813 100.159C106.836 100.192 106.853 100.23 106.863 100.27C106.873 100.31 106.875 100.351 106.87 100.392C106.864 100.433 106.851 100.472 106.831 100.507C106.806 100.557 106.768 100.598 106.722 100.627C106.677 100.656 106.624 100.671 106.571 100.67Z" fill="#E0E0E0"/>
<path d="M101.725 103.599C101.671 103.599 101.618 103.586 101.57 103.56L94.2482 99.1145C94.1796 99.0711 94.1296 99.0014 94.1089 98.9201C94.0881 98.8388 94.0981 98.7522 94.1368 98.6785C94.1566 98.6429 94.1829 98.6117 94.2142 98.5869C94.2455 98.562 94.2811 98.5439 94.3191 98.5336C94.3571 98.5234 94.3966 98.5211 94.4354 98.5269C94.4742 98.5328 94.5116 98.5467 94.5453 98.5678L101.873 103.013C101.941 103.055 101.991 103.124 102.012 103.204C102.033 103.284 102.023 103.37 101.985 103.443C101.958 103.491 101.92 103.53 101.875 103.558C101.829 103.585 101.777 103.6 101.725 103.599Z" fill="#E0E0E0"/>
<path d="M108.669 28.2865L150.186 53.4883L147.741 54.9723L106.23 29.764L108.669 28.2865Z" fill="#92E3A9"/>
<path opacity="0.8" d="M108.669 28.2865L150.186 53.4883L147.741 54.9723L106.23 29.764L108.669 28.2865Z" fill="white"/>
<path d="M106.23 29.764V80.1806L147.741 105.382V54.9723L106.23 29.764Z" fill="#92E3A9"/>
<path opacity="0.6" d="M106.23 29.764V80.1806L147.741 105.382V54.9723L106.23 29.764Z" fill="white"/>
<path d="M150.186 53.4884L140.407 59.4243C132.242 64.3839 125.463 71.5164 120.75 80.1047C116.037 88.693 113.557 98.4346 113.558 108.35V129.12L115.997 130.597L152.624 108.35V54.9789L150.186 53.4884Z" fill="#92E3A9"/>
<path opacity="0.6" d="M150.186 53.4884L140.407 59.4243C132.242 64.3839 125.463 71.5164 120.75 80.1047C116.037 88.693 113.557 98.4346 113.558 108.35V129.12L115.997 130.597L152.624 108.35V54.9789L150.186 53.4884Z" fill="white"/>
<path opacity="0.6" d="M117.526 87.0343L152.624 108.35V54.9788L150.186 53.4948L140.407 59.4308C130.076 65.704 122.026 75.4159 117.526 87.0343Z" fill="white"/>
<path d="M115.997 130.584V109.815C115.997 99.9013 118.479 90.1625 123.193 81.5775C127.907 72.9925 134.687 65.8638 142.852 60.9082L152.624 54.9788V108.35L115.997 130.584Z" fill="#92E3A9"/>
<path opacity="0.8" d="M115.997 130.584V109.815C115.997 99.9013 118.479 90.1625 123.193 81.5775C127.907 72.9925 134.687 65.8638 142.852 60.9082L152.624 54.9788V108.35L115.997 130.584Z" fill="white"/>
<path d="M132.002 87.3924L130.894 90.3864V92.0787L130.727 92.1828V90.471L129.613 88.8308L129.823 88.7071L130.628 89.9243L130.814 90.2302L130.987 89.7095L131.798 87.5095L132.002 87.3924Z" fill="#455A64"/>
<path d="M133.438 90.6011C132.615 91.0958 132.2 90.6011 132.2 89.2994C132.156 88.7523 132.246 88.2025 132.463 87.703C132.68 87.2036 133.016 86.7715 133.438 86.4486C134.261 85.9539 134.676 86.5202 134.676 87.7503C134.726 88.298 134.639 88.8501 134.421 89.3507C134.204 89.8513 133.865 90.2827 133.438 90.6011ZM133.438 86.6959C133.065 86.9847 132.77 87.3691 132.579 87.8124C132.388 88.2557 132.309 88.743 132.349 89.2278C132.349 90.2171 132.658 90.868 133.438 90.3863C133.808 90.1075 134.103 89.7324 134.294 89.2977C134.485 88.863 134.565 88.3837 134.527 87.9065C134.527 86.9237 134.23 86.2208 133.438 86.6894V86.6959Z" fill="#455A64"/>
<path d="M137.448 84.0925V86.2794C137.448 87.5291 137.089 88.3817 136.322 88.8503C135.554 89.319 135.189 88.9024 135.189 87.6527V85.4593L135.35 85.3617V87.5746C135.35 88.5705 135.623 89.0586 136.322 88.6356C136.662 88.3905 136.931 88.0523 137.102 87.6576C137.272 87.263 137.336 86.8269 137.287 86.3966V84.1901L137.448 84.0925Z" fill="#455A64"/>
<path d="M140.308 86.377L140.122 86.4941L139.776 85.648C139.621 85.2575 139.386 85.1729 138.977 85.4202L138.216 85.8823V87.6201L138.055 87.7178V83.6954L139.225 82.9859C139.72 82.6865 140.097 82.8167 140.097 83.5847C140.099 83.861 140.044 84.1344 139.937 84.3868C139.831 84.6392 139.674 84.865 139.478 85.0492C139.701 85.0492 139.844 85.2119 139.936 85.4332L140.308 86.377ZM139.237 83.2137L138.21 83.8646V85.6415V85.6805L139.2 85.0817C139.425 84.9405 139.612 84.7404 139.742 84.5009C139.872 84.2615 139.941 83.9907 139.943 83.7149C139.943 83.051 139.633 82.9664 139.237 83.2137Z" fill="#455A64"/>
<path d="M124.68 107.4L122.372 99.7459L124.136 98.6785L125.132 102.369C125.528 103.82 125.689 104.426 125.695 104.458H125.726C125.726 104.413 125.887 103.619 126.277 101.731L127.286 96.7844L128.963 95.7626L126.655 106.222L124.68 107.4Z" fill="#92E3A9"/>
<path d="M132.448 93.4455C134.428 92.2479 135.858 93.3219 135.858 96.0881C135.858 98.8543 134.428 101.666 132.448 102.864C130.467 104.061 129.044 102.994 129.044 100.26C129.044 97.5265 130.473 94.6822 132.448 93.4455ZM132.448 100.807C133.033 100.394 133.511 99.8315 133.835 99.1728C134.16 98.5141 134.321 97.78 134.304 97.0383C134.304 95.4047 133.525 94.8449 132.448 95.4893C131.86 95.9053 131.382 96.4706 131.057 97.1328C130.733 97.795 130.572 98.5326 130.591 99.2774C130.603 100.892 131.377 101.458 132.448 100.807Z" fill="#92E3A9"/>
<path d="M139.701 91.2455V98.2814L138.154 99.2252V92.1827L136.173 93.3869V91.3692L141.676 88.0237V90.0479L139.701 91.2455Z" fill="#92E3A9"/>
<path d="M142.48 87.5225L147.184 84.6652V86.6829L144.028 88.5964V90.152L146.355 88.7396V90.549L144.028 91.9615V93.6147L147.233 91.662V93.6863L142.48 96.5696V87.5225Z" fill="#92E3A9"/>
<path d="M128.914 111.702L128.759 111.794V108.279L128.561 109.086L127.614 112.542L126.661 110.225L126.463 109.672V113.199L126.302 113.291V109.268L126.45 109.184L127.472 111.663L127.62 112.06L127.762 111.488L128.79 107.765L128.932 107.673L128.914 111.702Z" fill="#455A64"/>
<path d="M131.891 109.893L131.711 110.004L131.383 109.138L129.774 110.114L129.452 111.371L129.273 111.481L130.51 106.71L130.653 106.619L131.891 109.893ZM131.327 108.943L130.708 107.244L130.634 106.938L130.548 107.335L129.929 109.808V109.847L131.327 108.943Z" fill="#455A64"/>
<path d="M133.908 104.855L132.868 105.506V109.288L132.707 109.385V105.597L131.668 106.248V106.04L133.908 104.64V104.855Z" fill="#455A64"/>
<path d="M136.272 103.423L135.233 104.074V107.856L135.072 107.953V104.139L134.038 104.79V104.575L136.254 103.228L136.272 103.423Z" fill="#455A64"/>
<path d="M138.593 105.825L136.662 106.997V102.974L138.593 101.803V102.017L136.805 103.098V104.738V104.771L138.42 103.788V104.003L136.805 104.985V106.632V106.665L138.593 105.578V105.825Z" fill="#455A64"/>
<path d="M141.397 104.12L141.211 104.237L140.865 103.391C140.71 103 140.475 102.916 140.066 103.163L139.305 103.625V105.363L139.144 105.461V101.438L140.314 100.729C140.809 100.429 141.187 100.56 141.187 101.328C141.188 101.604 141.133 101.877 141.027 102.13C140.92 102.382 140.764 102.608 140.568 102.792C140.791 102.792 140.939 102.955 141.026 103.176L141.397 104.12ZM140.326 100.963L139.299 101.581V103.358V103.397L140.289 102.799C140.515 102.657 140.701 102.457 140.831 102.218C140.962 101.978 141.031 101.707 141.032 101.432C141.032 100.794 140.716 100.722 140.326 100.963Z" fill="#455A64"/>
<path d="M142.691 103.384C142.535 103.508 142.35 103.582 142.155 103.598C141.961 103.614 141.767 103.572 141.595 103.475L141.725 103.215C141.871 103.308 142.04 103.354 142.21 103.347C142.381 103.34 142.546 103.28 142.684 103.176C142.935 103.047 143.149 102.853 143.306 102.611C143.464 102.369 143.559 102.088 143.582 101.796C143.582 101.432 143.384 101.243 142.963 101.334L142.437 101.445C141.917 101.542 141.638 101.445 141.638 100.924C141.663 100.578 141.773 100.245 141.956 99.9564C142.139 99.6679 142.39 99.434 142.684 99.2772C142.82 99.1672 142.984 99.1022 143.155 99.0906C143.325 99.079 143.496 99.1214 143.644 99.2122L143.52 99.466C143.398 99.3767 143.254 99.3288 143.105 99.3288C142.957 99.3288 142.812 99.3767 142.691 99.466C142.451 99.5869 142.244 99.7697 142.089 99.9973C141.934 100.225 141.837 100.49 141.806 100.768C141.806 101.197 142.09 101.217 142.542 101.126L143.025 101.028C143.569 100.924 143.767 101.184 143.767 101.633C143.757 102.001 143.651 102.358 143.461 102.666C143.271 102.975 143.005 103.223 142.691 103.384Z" fill="#455A64"/>
<path d="M143.842 80.0634L144.306 81.0983L145.346 80.6818L144.591 82.1593L144.77 83.5001L143.842 83.3829L142.913 84.6261L143.093 83.0705L142.344 82.5042L143.378 81.6646L143.842 80.0634Z" fill="#92E3A9"/>
<path d="M125.986 90.9071L125.522 92.5083L124.482 93.3479L125.231 93.9141L125.058 95.4697L125.986 94.2266L126.908 94.3437L126.735 93.0029L127.484 91.5254L126.45 91.942L125.986 90.9071Z" fill="#92E3A9"/>
<path d="M202.868 200.963L179.108 277.024L176.768 278.45L200.528 202.382L202.868 200.963Z" fill="#455A64"/>
<path d="M176.768 278.45L175.611 277.747L199.365 201.686L200.528 202.382L176.768 278.45Z" fill="#263238"/>
<path d="M209.552 258.539L208.394 257.843L184.981 210.928L186.145 211.631L209.552 258.539Z" fill="#263238"/>
<path d="M188.484 210.206L211.898 257.121L209.558 258.539L186.145 211.625L188.484 210.206Z" fill="#455A64"/>
<path d="M170.09 181.06L146.33 257.121L143.99 258.539L167.75 182.478L170.09 181.06Z" fill="#455A64"/>
<path d="M143.99 258.539L142.833 257.843L166.593 181.775L167.75 182.478L143.99 258.539Z" fill="#263238"/>
<path d="M176.774 238.636L175.617 237.933L152.203 191.018L153.367 191.721L176.774 238.636Z" fill="#263238"/>
<path d="M155.706 190.295L179.12 237.21L176.774 238.636L153.367 191.721L155.706 190.295Z" fill="#455A64"/>
<path d="M174.435 220.157L136.966 197.409L176.774 173.236L214.249 195.984L174.435 220.157Z" fill="#455A64"/>
<path d="M174.435 223.002V220.158L214.249 195.984V198.828L174.435 223.002Z" fill="#37474F"/>
<path d="M174.435 223.002V220.157L136.966 197.409L136.978 200.241L174.435 223.002Z" fill="#263238"/>
<path d="M174.453 217.313V183.194L142.542 163.883V198.002L174.453 217.313Z" fill="#92E3A9"/>
<path d="M174.453 183.194L208.679 162.399V196.524L174.453 217.313V183.194Z" fill="#92E3A9"/>
<path opacity="0.15" d="M174.453 183.194L208.679 162.399V196.524L174.453 217.313V183.194Z" fill="white"/>
<path d="M174.453 183.194L141.645 163.336L176.768 141.994L209.57 161.852L174.453 183.194Z" fill="#92E3A9"/>
<path opacity="0.3" d="M174.453 183.194L141.645 163.336L176.768 141.994L209.57 161.852L174.453 183.194Z" fill="white"/>
<path d="M174.453 183.194V189.286L141.645 169.435V163.336L174.453 183.194Z" fill="#92E3A9"/>
<path d="M209.571 161.852L174.453 183.194V189.287L209.571 167.951V161.852Z" fill="#92E3A9"/>
<path opacity="0.15" d="M209.571 161.852L174.453 183.194V189.287L209.571 167.951V161.852Z" fill="white"/>
<path opacity="0.1" d="M142.573 169.975V171.316L174.484 190.627V189.286L142.573 169.975ZM208.71 168.491L174.484 189.319V190.66L208.71 169.832V168.491Z" fill="black"/>
<path d="M165.064 166.128L169.75 168.973L186.145 159.014L181.459 156.177L165.064 166.128Z" fill="#92E3A9"/>
<path opacity="0.2" d="M184.975 159.73L186.145 159.014L181.459 156.177L181.466 157.608L184.975 159.73Z" fill="black"/>
<path opacity="0.1" d="M166.24 166.838L181.459 157.595V156.177L165.064 166.128L166.24 166.838Z" fill="black"/>
<path d="M181.75 202.942L179.541 195.6L181.23 194.578L182.184 198.112C182.567 199.505 182.716 200.065 182.722 200.117H182.753C182.753 200.071 182.908 199.31 183.279 197.513L184.245 192.769L185.854 191.792L183.644 201.822L181.75 202.942Z" fill="#FAFAFA"/>
<path d="M189.202 189.56C191.096 188.414 192.464 189.443 192.464 192.098C192.464 194.754 191.096 197.442 189.202 198.607C187.308 199.772 185.934 198.724 185.934 196.075C185.934 193.426 187.308 190.712 189.202 189.56ZM189.202 196.622C189.762 196.223 190.218 195.683 190.527 195.05C190.837 194.418 190.99 193.714 190.972 193.003C190.972 191.441 190.229 190.901 189.202 191.519C188.641 191.919 188.184 192.462 187.875 193.096C187.565 193.731 187.413 194.438 187.432 195.151C187.432 196.7 188.175 197.247 189.202 196.622Z" fill="#FAFAFA"/>
<path d="M196.159 187.444V194.194L194.667 195.099V188.349L192.779 189.501V187.549L198.046 184.346V186.299L196.159 187.444Z" fill="#FAFAFA"/>
<path d="M198.82 183.897L203.332 181.157V183.11L200.305 184.945V186.436L202.533 185.082V186.82L200.305 188.173V189.762L203.4 187.894V189.846L198.845 192.612L198.82 183.897Z" fill="#FAFAFA"/>
<path d="M185.606 156.984L184.133 160.212L169.75 168.973L166.748 167.15L174.806 149.258L185.606 156.984Z" fill="#FAFAFA"/>
<path d="M259.548 208.851C259.832 210.322 260.359 212.021 260.786 215.022C261.213 218.022 260.55 218.146 262.605 225.67C263.843 230.18 263.614 231.977 260.748 235.784C257.654 239.865 254.442 239.039 252.337 234.522C250.543 230.662 250.648 228.866 250.642 224.863C250.635 220.86 250.598 219.695 250.406 216.519C250.239 213.72 250.481 211.806 250.301 209.665L259.548 208.851Z" fill="#37474F"/>
<path d="M260.501 219.819C259.925 215.913 259.789 211.923 259.579 209.3C259.108 203.443 260.352 191.824 259.48 182.992L243.939 181.502C244.459 184.945 248.754 200.514 250.314 209.912C250.314 209.912 250.933 222.669 251.78 228.286C251.817 228.46 251.89 228.623 251.994 228.763C252.098 228.903 252.23 229.018 252.381 229.097C252.532 229.177 252.699 229.22 252.868 229.224C253.037 229.228 253.204 229.192 253.359 229.119C255.597 228.176 258.065 228.019 260.396 228.67C260.559 228.735 260.734 228.759 260.907 228.739C261.081 228.719 261.247 228.656 261.393 228.556C261.539 228.456 261.66 228.321 261.747 228.162C261.834 228.003 261.884 227.825 261.894 227.642C261.863 225.566 260.934 222.728 260.501 219.819Z" fill="#B16668"/>
<path d="M215.914 178.345C216.49 190.386 216.608 199.57 216.484 204.757C216.489 207.322 216.029 209.865 215.128 212.249C214.305 214.449 212.875 217.625 211.687 219.024C211.687 219.024 207.856 223.34 208.593 223.743C209.329 224.147 217.226 224.661 220.352 223.743C223.477 222.826 224.684 220.059 225.873 215.015C227.061 209.971 228.126 202.583 228.126 202.583C227.987 202.311 227.885 202.02 227.822 201.718C227.445 200.24 228.942 192.846 229.351 189.169L215.914 178.345Z" fill="#B16668"/>
<path d="M230.935 210.016C230.812 211.266 229.914 212.744 229.611 214.696C229.255 216.921 229.11 219.178 229.178 221.433C229.246 224.192 229.252 224.583 229.252 224.583H228.441C228.441 224.583 228.342 220.6 228.305 218.849C228.268 217.098 227.463 215.562 226.665 215.393C226.665 215.412 226.999 210.121 230.935 210.016Z" fill="#263238"/>
<path d="M228.02 201.9C228.491 203.312 229.704 205.154 230.403 206.521C230.817 207.306 231.072 208.173 231.152 209.066C231.145 209.542 231.046 210.011 230.859 210.444C230.673 210.877 230.404 211.266 230.069 211.585C229.419 212.236 228.949 212.776 228.169 213.538C226.541 215.113 225.86 216.499 224.777 220.151C224.158 222.324 223.1 224.297 221.268 225.358C219.838 226.178 215.914 227.571 211.093 227.356C207.089 227.18 205.523 225.345 207.076 223.763C208.63 222.181 211.223 219.376 211.687 219.044C213.143 219.05 214.584 219.348 215.933 219.923C218.149 220.99 218.829 222.377 221.206 221.225C223.36 220.157 224.499 216.258 224.684 210.056C224.889 203.254 228.02 201.9 228.02 201.9Z" fill="#37474F"/>
<path d="M248.704 96.5304C248.983 98.0665 249.292 99.4984 249.825 100.26C253.068 104.92 256.379 110.557 257.023 119.278C258.582 140.321 258.65 160.641 258.65 160.641C258.811 162.496 260.928 166.499 260.662 177.714C260.458 186.175 259.87 199.108 259.87 199.108C259.87 199.108 252.802 202.128 247.776 200.169C245.703 192.124 242.385 172.982 240.349 163.766C238.189 154.061 236.704 142.345 236.704 142.345L232.266 160.57C232.949 164.802 233.124 169.108 232.786 173.386C232.217 179.042 228.763 195.99 228.763 195.99C228.763 195.99 220.371 197.884 216.032 194.773C216.032 194.773 214.98 166.61 214.899 160.394C214.819 154.178 213.897 119.923 217.418 103.644C217.579 102.889 218.068 97.7411 218.068 97.7411C222.308 101.366 243.097 100.572 248.704 96.5304Z" fill="#37474F"/>
<path d="M260.006 195.99C257.833 198.118 249.651 198.802 247.009 197.357L248.067 201.913C250.091 202.759 252.284 203.063 254.448 202.798C258.291 202.401 259.876 200.598 259.876 200.598L260.006 195.99Z" fill="#455A64"/>
<path d="M229.357 193.178C227.092 193.998 218.316 193.439 215.815 191.877L215.97 195.652C218.275 196.691 220.713 197.367 223.205 197.656C227.03 198.034 228.664 196.888 228.664 196.888L229.357 193.178Z" fill="#455A64"/>
<path d="M236.685 142.345L233.943 121.55C232.018 121.597 230.108 121.177 228.363 120.321C226.617 119.465 225.083 118.197 223.88 116.616C223.88 116.616 223.781 121.823 231.926 124.108L235.144 143.269L232.229 160.556L236.685 142.345Z" fill="#263238"/>
<path d="M199.606 82.8362C197.31 81.0203 195.564 79.6664 192.909 75.208C192.169 74.1527 191.304 73.2013 190.335 72.3767C189.413 71.4544 188.656 70.3653 188.1 69.1613C187.859 68.556 186.392 69.2069 186.677 71.3027C186.894 72.8583 187.791 74.2772 188.15 75.1624C187.37 75.1624 186.12 75.0517 184.436 75.1624C182.753 75.273 179.38 75.0843 179.999 77.115C180.135 77.5706 180.488 77.9546 180.5 78.4168C180.486 78.6368 180.45 78.8548 180.395 79.0676C180.32 79.4929 180.356 79.9314 180.499 80.3369C180.642 80.7425 180.886 81.1 181.206 81.3717C181.365 81.4724 181.502 81.6078 181.608 81.7688C181.781 82.1202 181.651 82.5498 181.726 82.9208C181.821 83.3452 182.024 83.7344 182.314 84.0468C182.728 84.5154 182.864 84.3527 183.279 84.8214C183.551 85.1273 183.607 85.8042 184.245 86.2533C184.721 86.5852 185.866 86.6243 187.085 86.6047C188.305 86.5852 188.998 87.0083 190.619 86.9562C191.894 86.9172 193.095 87.6722 195.218 89.9632C199.971 94.7276 200.578 96.2832 204.842 99.9216C205.218 100.249 205.611 100.555 206.018 100.839C210.053 103.762 211.65 101.49 214.837 95.5868C218.755 88.3296 220.785 84.216 220.785 84.216L227.073 64.5011C223.199 64.9632 218.644 69.5714 215.203 74.7979C213.587 77.2517 206.897 88.0562 206.897 88.0562C204.619 86.5657 201.908 84.6521 199.606 82.8362Z" fill="#B16668"/>
<path d="M186.07 76.3666C186.241 76.4162 186.406 76.4815 186.565 76.5618C186.73 76.646 186.881 76.7582 187.011 76.8938H186.962C187.737 76.7362 188.54 76.8674 189.233 77.2648C189.406 77.3763 189.561 77.5171 189.691 77.6813C189.837 77.8624 189.912 78.0951 189.901 78.3322C189.895 78.4577 189.856 78.5791 189.79 78.6837C189.706 78.7808 189.596 78.8488 189.474 78.8789C189.276 78.9245 189.097 78.9505 188.911 78.9896C188.546 79.0677 188.187 79.1979 187.81 79.289C187.428 79.3807 187.036 79.4114 186.646 79.3801C185.881 79.3212 185.126 79.1616 184.399 78.905C184.77 78.9952 185.146 79.0562 185.526 79.0872C185.903 79.1328 186.275 79.1783 186.652 79.1849C187.023 79.1899 187.393 79.1483 187.754 79.0612C188.119 78.9701 188.478 78.8334 188.855 78.7423C189.047 78.6967 189.245 78.6642 189.412 78.6186C189.58 78.573 189.629 78.508 189.654 78.3127C189.685 77.9873 189.406 77.6618 189.109 77.4796C188.462 77.0911 187.714 76.9292 186.974 77.0175H186.943C186.833 76.8812 186.701 76.7666 186.553 76.679C186.401 76.5605 186.239 76.456 186.07 76.3666Z" fill="#9A4A4D"/>
<path d="M188.719 78.8789C188.881 78.8222 189.057 78.8227 189.219 78.8803C189.381 78.9378 189.52 79.0493 189.617 79.1979C189.711 79.3588 189.757 79.5454 189.751 79.7342C189.744 79.923 189.685 80.1056 189.58 80.2588C189.257 80.8938 188.752 81.406 188.137 81.7232C187.809 81.8297 187.465 81.8738 187.122 81.8534C186.792 81.8534 186.464 81.8404 186.138 81.8144C185.482 81.7688 184.832 81.7232 184.176 81.6451C184.832 81.6126 185.488 81.6061 186.145 81.5996C186.783 81.6562 187.425 81.6124 188.051 81.4694C188.335 81.3364 188.595 81.1513 188.818 80.9227C189.047 80.6881 189.255 80.4309 189.437 80.1546C189.534 80.0319 189.594 79.882 189.611 79.7235C189.627 79.5649 189.599 79.4048 189.53 79.2629C189.453 79.1148 189.332 78.9971 189.186 78.9277C189.04 78.8584 188.876 78.8413 188.719 78.8789Z" fill="#9A4A4D"/>
<path d="M188.435 81.4043C188.576 81.3381 188.729 81.3038 188.883 81.3038C189.038 81.3038 189.191 81.3381 189.332 81.4043C189.406 81.4447 189.472 81.5018 189.523 81.5715C189.574 81.6412 189.61 81.7219 189.629 81.8078C189.657 81.9758 189.657 82.1476 189.629 82.3155C189.522 82.6271 189.341 82.9049 189.103 83.1226C188.898 83.3789 188.64 83.5816 188.348 83.7149C188.044 83.7763 187.734 83.7938 187.426 83.767C187.135 83.7859 186.846 83.8207 186.559 83.8711C185.977 83.9687 185.389 84.0729 184.802 84.1575C185.371 83.9622 185.94 83.806 186.522 83.6693C186.817 83.5926 187.117 83.5425 187.42 83.5196C187.704 83.5361 187.989 83.5142 188.267 83.4545C188.523 83.342 188.751 83.1708 188.936 82.9534C189.148 82.7635 189.319 82.5283 189.437 82.2634C189.462 82.1237 189.462 81.9802 189.437 81.8404C189.429 81.7733 189.406 81.7091 189.371 81.6527C189.336 81.5963 189.288 81.5492 189.233 81.5149C188.99 81.3715 188.704 81.3319 188.435 81.4043Z" fill="#9A4A4D"/>
<path d="M188.558 83.448C188.62 83.4725 188.675 83.51 188.722 83.5581C188.769 83.6063 188.806 83.6641 188.831 83.7279C188.879 83.8605 188.894 84.004 188.874 84.1445C188.819 84.402 188.734 84.6513 188.62 84.8865C188.558 85.0031 188.49 85.1161 188.416 85.2249C188.339 85.3392 188.24 85.4346 188.125 85.5048C187.918 85.6439 187.696 85.7554 187.463 85.8367L188.008 85.3356C188.091 85.2624 188.164 85.1769 188.224 85.0817C188.286 84.979 188.342 84.8725 188.391 84.7628C188.503 84.5546 188.599 84.3369 188.676 84.1119C188.723 84.0018 188.737 83.8793 188.716 83.7606C188.695 83.642 188.64 83.5329 188.558 83.448Z" fill="#9A4A4D"/>
<path d="M189.778 78.2996C189.679 79.439 190.008 80.5739 190.695 81.4609C191.382 82.3479 192.373 82.9164 193.454 83.0445C192.661 83.0706 191.874 82.8895 191.164 82.5172C190.576 82.2289 190.06 81.7985 189.66 81.2611L189.542 81.7818C189.388 81.5084 189.313 81.2741 188.608 81.3457C188.925 81.0365 189.203 80.6866 189.437 80.3043C189.648 79.8747 189.951 79.1978 189.084 78.7943C189.265 78.7709 189.442 78.7228 189.611 78.6511C189.676 78.6259 189.729 78.5756 189.76 78.5102C189.792 78.4449 189.798 78.3695 189.778 78.2996Z" fill="#9A4A4D"/>
<path d="M227.599 63.9348C222.116 64.9892 220.173 65.0348 214.516 74.6677C211.031 80.5841 206.798 87.8023 206.798 87.8023L202.738 85.1988C203.493 85.9994 204.972 90.1194 203.976 92.6578C203.335 94.2139 202.2 95.4867 200.763 96.2571C202.154 97.7822 203.64 99.2065 205.213 100.52C207.417 102.284 208.586 102.551 209.923 102.135C211.26 101.718 212.566 100.182 215.809 96.14C219.145 91.9809 223.05 85.8562 223.05 85.8562L227.599 63.9348Z" fill="#92E3A9"/>
<path opacity="0.55" d="M227.599 63.9348C222.116 64.9892 220.173 65.0348 214.516 74.6677C211.031 80.5841 206.798 87.8023 206.798 87.8023L202.738 85.1988C203.493 85.9994 204.972 90.1194 203.976 92.6578C203.335 94.2139 202.2 95.4867 200.763 96.2571C202.154 97.7822 203.64 99.2065 205.213 100.52C207.417 102.284 208.586 102.551 209.923 102.135C211.26 101.718 212.566 100.182 215.809 96.14C219.145 91.9809 223.05 85.8562 223.05 85.8562L227.599 63.9348Z" fill="white"/>
<path opacity="0.35" d="M206.798 87.8024C208.958 89.1887 211.031 92.1307 211.396 93.8685C211.389 92.4073 211.029 90.9719 210.351 89.6969C209.672 88.4219 208.696 87.349 207.516 86.5787L206.798 87.8024Z" fill="#92E3A9"/>
<path opacity="0.35" d="M202.781 98.2488C203.144 98.0476 203.486 97.8077 203.802 97.5329C204.449 96.9929 204.995 96.3307 205.411 95.5803C206.192 94.1174 206.493 92.4244 206.265 90.7638C206.265 90.6792 206.34 90.6792 206.358 90.7638C206.77 92.5332 206.508 94.4017 205.628 95.9708C205.179 96.7541 204.598 97.4445 203.914 98.008C203.635 98.2336 203.341 98.438 203.035 98.6198L202.731 98.3334L202.781 98.2488Z" fill="#92E3A9"/>
<path d="M239.625 61.585L248.389 64.4489C249.893 64.9891 255.581 68.6405 253.594 77.6355C252.938 80.6165 252.04 84.7951 251.23 88.9672C250.611 92.1565 252.882 98.2943 254.714 108.07C254.714 108.07 247.2 114.358 232.266 112.587C220.872 111.234 216.589 106.079 216.589 106.079C216.478 96.7517 218.359 90.8483 219.201 87.2945C219.201 87.2945 217.926 85.6218 217.852 81.8272C217.783 77.8503 220.055 74.3682 223.422 69.8641C225.233 67.3987 227.31 65.1621 229.611 63.1992L239.625 61.585Z" fill="#FAFAFA"/>
<path d="M220.092 50.3511C219.714 49.0494 218.291 48.9062 217.988 47.0968C217.684 45.2873 218.607 44.1158 219.981 43.3217C221.355 42.5276 221.646 41.0892 221.367 38.1147C221.088 35.1402 223.106 33.3503 225.439 32.9858C226.591 32.8101 227.915 32.9338 228.738 32.0486C229.054 31.6249 229.314 31.1587 229.512 30.6622C230.626 28.5013 232.693 27.5576 235.46 27.5771C236.702 27.5609 237.935 27.8043 239.087 28.293C240.411 28.8242 241.606 29.6604 242.583 30.7403C244.1 30.4865 246.953 30.8314 248.5 32.2634C249.175 32.7672 249.746 33.4081 250.181 34.1482C250.616 34.8883 250.905 35.7125 251.032 36.5721C251.291 38.336 251.137 39.3384 251.861 40.2951C253.334 42.2478 255.172 42.2478 256.008 43.888C257.196 46.2311 254.268 48.2423 255.76 51.0476C256.07 51.5969 256.259 52.2126 256.312 52.849C256.364 53.4854 256.281 54.1262 256.066 54.7238C255.851 55.3215 255.512 55.8607 255.072 56.3014C254.632 56.7422 254.104 57.0732 253.526 57.2699C252.226 57.7906 251.112 57.0877 249.255 57.8166C247.399 58.5456 247.324 60.0361 244.96 61.071C243.029 61.8846 241.376 60.4201 239.811 60.2053C237.669 59.945 238.356 60.687 236.246 59.2616C235.522 58.7734 235.088 57.9013 234.358 57.4196C232.043 55.9617 231.263 56.7687 228.478 57.8101C227.748 58.09 225.322 58.7995 223.669 56.8729C222.681 55.6103 222.17 54.0092 222.233 52.3753C221.763 54.0025 218.211 53.97 217.852 51.386C218.01 51.6486 218.253 51.8427 218.536 51.9333C218.819 52.0238 219.123 52.0049 219.394 51.8798C219.665 51.7547 219.884 51.5318 220.012 51.2513C220.14 50.9709 220.169 50.6516 220.092 50.3511Z" fill="#263238"/>
<path d="M242.973 59.5999C242.973 58.1159 243.258 54.3409 243.258 54.3409C243.778 55.7338 246.179 55.7858 247.355 54.0675C248.841 51.8936 248.834 49.3096 247.826 47.7345C246.705 45.9902 244.044 45.9446 242.874 48.6457C241.117 48.9907 240.454 46.1594 241.896 43.5624C241.927 37.3596 233.912 39.4489 232.297 33.8774C230.911 34.1456 229.603 34.7445 228.472 35.628C227.341 36.5115 226.418 37.6562 225.774 38.9738C225.155 40.3536 225.05 41.1998 225.198 43.992C225.254 45.079 224.542 46.3417 224.338 47.7801C223.391 54.3734 225.235 57.003 227.29 58.2852C228.386 58.9361 229.809 59.4112 232.427 59.5869C232.427 59.5869 232.378 60.8236 232.328 61.6437C232.278 62.4638 232.192 62.8218 231.251 62.9454C230.929 62.991 230.57 63.017 230.57 63.017C230.57 63.017 226.238 67.2217 231.944 68.3216C240.461 69.9618 243.865 64.501 244.242 63.1147C242.93 62.8283 242.911 62.0863 242.973 59.5999Z" fill="#B16668"/>
<path d="M234.965 52.3752L231.82 53.2604C231.862 53.4844 231.948 53.697 232.07 53.8853C232.193 54.0736 232.351 54.2335 232.535 54.3554C232.719 54.4772 232.924 54.5584 233.138 54.5939C233.353 54.6295 233.572 54.6187 233.782 54.5621C234.213 54.4344 234.579 54.1332 234.8 53.7239C235.022 53.3145 235.081 52.8299 234.965 52.3752Z" fill="#9A4A4D"/>
<path d="M234.736 53.1042C234.323 53.0718 233.912 53.191 233.573 53.4414C233.235 53.6919 232.989 54.058 232.879 54.4775C233.173 54.5758 233.488 54.5758 233.782 54.4775C234.081 54.388 234.351 54.2127 234.561 53.9713C234.771 53.73 234.913 53.432 234.971 53.1107C234.89 53.1302 234.791 53.1107 234.736 53.1042Z" fill="#F28F8F"/>
<path d="M226.776 42.3844L229.085 41.3755C229.028 41.2161 228.942 41.0704 228.83 40.9472C228.718 40.824 228.584 40.726 228.435 40.659C228.287 40.5921 228.127 40.5576 227.965 40.5577C227.803 40.5578 227.643 40.5925 227.494 40.6596C227.189 40.798 226.945 41.0531 226.812 41.3732C226.679 41.6933 226.666 42.0547 226.776 42.3844Z" fill="#263238"/>
<path d="M238.01 43.1914L235.769 41.9612C235.842 41.8063 235.943 41.6683 236.068 41.555C236.192 41.4418 236.336 41.3558 236.492 41.3018C236.648 41.2479 236.813 41.2272 236.977 41.241C237.141 41.2547 237.3 41.3026 237.446 41.3819C237.739 41.5543 237.959 41.836 238.063 42.1711C238.168 42.5063 238.149 42.8704 238.01 43.1914Z" fill="#263238"/>
<path d="M232.415 59.5739C236.394 59.3526 240.875 57.8752 242.317 55.6036C242.317 55.6036 241.735 57.9142 240.12 58.8905C237.748 60.2564 235.082 60.96 232.377 60.9343L232.415 59.5739Z" fill="#9A4A4D"/>
<path d="M236.685 46.0162C236.686 46.2366 236.625 46.4524 236.51 46.6363C236.394 46.8202 236.229 46.9638 236.036 47.0491C235.843 47.1343 235.63 47.1573 235.424 47.1151C235.218 47.0729 235.029 46.9674 234.881 46.812C234.732 46.6566 234.631 46.4583 234.589 46.2422C234.548 46.0261 234.569 45.802 234.648 45.5983C234.728 45.3945 234.864 45.2203 235.038 45.0977C235.212 44.9751 235.417 44.9097 235.627 44.9097C235.906 44.9097 236.175 45.026 236.373 45.2334C236.571 45.4407 236.684 45.7221 236.685 46.0162Z" fill="#263238"/>
<path d="M229.085 45.502C229.085 45.7224 229.023 45.9379 228.906 46.121C228.789 46.3042 228.624 46.4469 228.43 46.5309C228.236 46.6149 228.023 46.6366 227.818 46.5931C227.612 46.5496 227.424 46.443 227.276 46.2867C227.128 46.1304 227.028 45.9315 226.988 45.7151C226.948 45.4988 226.969 45.2748 227.05 45.0716C227.132 44.8683 227.268 44.6949 227.443 44.5734C227.618 44.4519 227.823 44.3877 228.033 44.389C228.171 44.389 228.309 44.4179 228.437 44.4739C228.565 44.5299 228.681 44.612 228.779 44.7154C228.877 44.8188 228.954 44.9416 229.007 45.0766C229.059 45.2116 229.086 45.3562 229.085 45.502Z" fill="#263238"/>
<path d="M227.853 49.8499L231.257 51.3664L232.155 44.2264L227.853 49.8499Z" fill="#9A4A4D"/>
<path d="M245.981 53.4101C245.973 53.5298 245.942 53.6465 245.89 53.7536C245.839 53.8608 245.768 53.9562 245.682 54.0344C245.595 54.1127 245.495 54.1723 245.386 54.2098C245.278 54.2473 245.164 54.262 245.05 54.253C244.936 54.244 244.825 54.2116 244.723 54.1575C244.621 54.1034 244.531 54.0288 244.456 53.9378C244.382 53.8468 244.325 53.7414 244.289 53.6274C244.254 53.5134 244.24 53.3931 244.248 53.2734C244.266 53.0318 244.373 52.8072 244.548 52.6491C244.723 52.4911 244.95 52.4124 245.18 52.4306C245.41 52.4487 245.623 52.5621 245.773 52.7458C245.924 52.9295 245.998 53.1685 245.981 53.4101Z" fill="#EBEBEB"/>
<path d="M232.247 62.2034C231.839 62.3597 229.103 63.2709 227.599 63.9348C224.017 66.9779 221.021 70.7139 218.774 74.941C217.202 78.0847 216.385 80.7989 216.298 85.9278C216.23 90.3862 215.716 103.632 214.875 110.999C215.333 112.724 219.912 114.774 219.912 114.774C220.148 108.149 220.259 87.3857 221.621 80.3433C223.236 71.9861 230.354 64.3513 232.012 63.1537L232.247 62.2034Z" fill="#92E3A9"/>
<path d="M242.979 61.6892V63.056C239.043 73.8215 239.817 78.7551 240.318 85.8366C241.513 102.759 243.413 117.378 243.413 117.378C243.413 117.378 254.652 117.502 258.657 111.806C258.657 111.806 255.054 103.254 253.705 94.6169C252.907 89.4945 255.178 78.9959 254.324 71.5825C253.978 68.4843 252.864 65.3927 250.654 64.6637C248.828 64.0584 247.244 63.5702 247.244 63.5702L242.979 61.6892Z" fill="#92E3A9"/>
<path d="M256.955 120.932C258.737 121.465 261.009 119.135 261.634 118.328C262.259 117.521 261.454 115.594 261.077 113.974C260.699 112.353 261.077 109.613 259.17 110.381C257.264 111.149 253.247 116.564 256.955 120.932Z" fill="#9A4A4D"/>
<path d="M251.013 65.0737C256.781 66.3364 257.344 66.1542 260.068 71.9144C263.243 78.6184 267.736 89.5661 268.869 92.0914C270.001 94.6168 271.097 96.5109 268.045 100.449C265.328 103.957 257.301 114.058 256.107 115.503C255.054 116.805 256.237 120.554 259.857 120.007C259.857 120.007 257.103 122.572 255.587 122.285C254.281 122.045 250.982 119.929 249.094 115.777C247.906 113.173 248.902 111.084 250.71 108.155C252.87 104.66 258.217 95.3068 258.217 95.3068L250.264 78.5988C250.264 78.5988 246.798 69.6949 251.013 65.0737Z" fill="#B16668"/>
<path d="M250.666 64.6637C249.268 66.1282 247.046 71.6215 250.14 79.5622L257.932 95.3328L254.46 101.191C254.46 101.191 256.936 104.582 259.022 106.131C259.589 106.58 260.239 106.9 260.931 107.069C261.623 107.239 262.341 107.254 263.038 107.114C263.038 107.114 267.501 101.907 269.079 99.6221C270.657 97.3375 270.936 96.6801 268.924 91.5513C266.981 86.6046 260.804 71.5434 259.48 69.2393C258.155 66.9352 256.453 65.3927 250.666 64.6637Z" fill="#92E3A9"/>
<path opacity="0.55" d="M250.666 64.6637C249.268 66.1282 247.046 71.6215 250.14 79.5622L257.932 95.3328L254.46 101.191C254.46 101.191 256.936 104.582 259.022 106.131C259.589 106.58 260.239 106.9 260.931 107.069C261.623 107.239 262.341 107.254 263.038 107.114C263.038 107.114 267.501 101.907 269.079 99.6221C270.657 97.3375 270.936 96.6801 268.924 91.5513C266.981 86.6046 260.804 71.5434 259.48 69.2393C258.155 66.9352 256.453 65.3927 250.666 64.6637Z" fill="white"/>
<path opacity="0.35" d="M259.548 101.731C258.964 101.26 258.416 100.742 257.908 100.182C257.408 99.6397 256.951 99.0564 256.54 98.4374C256.472 98.3333 256.391 98.1836 256.329 98.073L256.063 98.5155C256.112 98.5868 256.158 98.6607 256.2 98.7368C256.614 99.3514 257.069 99.9343 257.561 100.481C258.063 101.039 258.608 101.552 259.189 102.017C259.794 102.548 260.467 102.986 261.188 103.319C261.386 103.397 261.398 103.111 261.275 103.013C260.68 102.557 260.08 102.18 259.548 101.731Z" fill="#92E3A9"/>
<path d="M95.0713 228.86C95.5541 228.814 95.5665 230.051 95.2632 230.643C94.4091 232.349 92.0201 234.184 88.5232 234.998C85.0264 235.811 78.1874 234.841 76.1449 234.757C74.1025 234.672 70.4943 235.785 68.4271 236.13C64.6641 236.781 62.0894 235.675 60.8578 234.405C60.6553 234.147 60.5053 233.849 60.4169 233.527C60.3286 233.206 60.3038 232.869 60.3441 232.537C60.3812 231.034 60.505 230.728 60.6659 230.741L95.0713 228.86Z" fill="#37474F"/>
<path d="M61.0435 226.354C60.6823 228.135 60.5697 229.961 60.7093 231.776C61.1487 232.895 62.3122 233.533 63.2406 233.839C65.7163 234.653 68.1177 234.49 70.8223 233.891C72.5644 233.421 74.3592 233.202 76.1573 233.24C78.2988 233.364 83.0211 233.891 85.1687 233.891C87.173 233.923 89.1619 233.52 91.0113 232.707C92.4286 232.01 94.5762 230.481 95.059 229.322C95.5232 226.621 95.257 225.007 93.7778 224.115C92.2986 223.223 89.9653 222.95 86.8708 222.703C85.9486 222.631 84.7788 222.572 84.2837 222.514C82.427 222.299 80.663 222.156 79.2457 222.058C78.0379 222.069 76.843 221.796 75.7489 221.258C75.2446 221.021 74.8367 220.603 74.5977 220.08C74.3006 219.39 74.3068 218.381 73.7312 218.322C73.7312 218.322 63.1478 220.216 62.2937 220.307C61.3158 220.412 61.9595 221.902 61.0435 226.354Z" fill="#455A64"/>
<path d="M85.1192 222.416C85.4393 222.68 85.7047 223.01 85.899 223.386C86.1127 223.796 86.275 224.234 86.3818 224.688C86.5241 225.254 85.8557 225.339 85.5958 224.688C85.4022 224.144 85.1488 223.627 84.8407 223.145C84.6197 222.809 84.2933 222.564 83.9185 222.455L83.3862 222.397C83.5286 221.993 84.7045 222.13 85.1192 222.416Z" fill="#FAFAFA"/>
<path d="M80.3412 221.83C80.5194 221.804 80.7008 221.819 80.8729 221.874C81.045 221.929 81.2036 222.023 81.3377 222.149C81.6852 222.46 81.9443 222.865 82.0866 223.321C82.2715 223.868 82.4143 224.429 82.5136 225C82.5508 225.365 81.7338 225.352 81.6472 224.955C81.5605 224.558 81.3748 223.835 81.2263 223.425C81.1335 223.171 80.7126 222.214 80.1494 222.123H79.8956C79.8956 221.993 80.0504 221.909 80.1618 221.883C80.2197 221.859 80.2799 221.841 80.3412 221.83Z" fill="#FAFAFA"/>
<path d="M77.5375 221.739C77.7785 221.788 77.9967 221.921 78.1564 222.117C78.3473 222.385 78.4957 222.684 78.5959 223.002C78.7647 223.584 78.8482 224.19 78.8434 224.798C78.8434 225.267 78.0388 225.143 78.0141 224.798C77.9274 223.809 77.9274 223.158 77.4756 222.436C77.3065 222.121 77.0663 221.855 76.7762 221.661C76.7762 221.577 76.9186 221.564 76.9991 221.583C77.1811 221.625 77.3608 221.677 77.5375 221.739Z" fill="#FAFAFA"/>
<path d="M61.1053 208.318C61.1053 208.318 62.0213 218.557 62.2503 220.919C62.3246 221.674 63.6862 221.98 64.3856 222.299C65.2592 222.642 66.0727 223.135 66.7932 223.757C68.5694 225.612 69.8877 226.048 70.9832 222.794C71.019 222.637 71.0862 222.489 71.1803 222.361C71.2745 222.233 71.3934 222.128 71.5292 222.053C71.6651 221.977 71.8147 221.932 71.9681 221.922C72.1215 221.912 72.2753 221.936 72.4191 221.993C73.0158 222.208 73.646 222.301 74.2758 222.267C74.3687 222.201 74.313 222.052 74.2758 221.954C74.0001 221.593 73.802 221.173 73.6951 220.724C73.5883 220.274 73.5753 219.806 73.6569 219.351C73.9602 215.159 74.1273 210.961 74.3563 206.763L61.1053 208.318Z" fill="#FFBDA7"/>
<path d="M27.0156 200.807C28.2535 198.692 28.6681 194.761 29.5717 187.458L41.0155 193.661L36.1199 206.301C35.9179 206.849 35.7625 207.415 35.6557 207.993C34.2631 210.069 27.0156 200.807 27.0156 200.807Z" fill="#FFBDA7"/>
<path d="M23.2155 205.331C23.2155 205.207 23.166 204.205 23.2155 204.088C23.4816 203.014 24.1129 202.714 24.9237 202.135C25.7367 201.559 26.4825 200.883 27.1456 200.124C27.4179 199.727 27.4674 199.525 27.8883 199.343C28.6062 199.037 29.745 199.011 31.1809 199.798C33.5142 201.1 34.226 202.636 34.0898 204.315C33.9908 205.617 33.8856 207.296 34.9625 208.058C35.4081 208.377 36.1137 206.327 36.1137 206.327C36.7759 207.498 35.8475 209.112 35.3586 211.475C35.0787 212.782 35.0576 214.136 35.2967 215.452C35.5319 217.528 35.8042 217.515 36.8502 217.665C37.7538 217.789 40.3161 217.606 41.8696 218.752C44.0172 220.327 43.4416 222.423 43.4416 222.423C43.1631 223.223 40.8298 227.089 32.3011 225.645C29.8255 225.228 24.6266 221.141 24.7071 220.757C24.7503 220.365 24.7503 219.97 24.7071 219.578C24.7071 218.667 24.639 217.749 24.6019 216.832C24.6291 215.961 24.5794 215.089 24.4533 214.228C24.298 213.517 24.1925 212.795 24.1377 212.067C23.9768 210.225 23.8096 208.383 23.6487 206.541C23.5868 205.982 23.1227 205.845 23.2155 205.331Z" fill="#455A64"/>
<path d="M22.1385 204.96C21.2968 205.812 21.8105 208.299 22.9369 211.28C23.4383 212.582 24.3666 214.873 24.0943 217.294C23.822 219.715 23.7725 220.854 24.3666 221.993C25.295 223.764 30.2525 226.035 33.1738 226.745C31.4063 224.142 30.3762 221.066 30.203 217.873C29.9059 212.529 29.5222 209.086 27.2013 206.724C24.2614 203.723 22.1385 204.96 22.1385 204.96Z" fill="black"/>
<path d="M43.4416 222.397C43.4416 222.397 41.7334 225.768 35.1357 225.651C32.5363 225.606 31.1499 224.278 31.0819 220.125C31.0076 215.12 30.6239 210.069 29.089 207.589C27.554 205.11 25.097 203.899 23.1969 204.075C22.7519 204.218 22.3742 204.531 22.1385 204.953C22.1385 204.953 24.0386 204.303 27.0032 206.906C29.188 208.813 29.7759 212.796 29.745 217.743C29.745 219.871 29.6088 222.299 30.203 223.9C30.4759 224.61 30.9029 225.243 31.45 225.748C31.997 226.253 32.6488 226.617 33.3533 226.81C36.9368 227.864 41.8448 226.12 43.0888 224.525C43.2973 224.222 43.4374 223.872 43.4985 223.504C43.5596 223.135 43.5402 222.756 43.4416 222.397Z" fill="#37474F"/>
<path d="M35.5009 216.728C35.7681 216.926 35.9574 217.22 36.0332 217.554C36.061 217.981 35.9792 218.408 35.7963 218.791C35.6134 219.173 35.3361 219.497 34.9934 219.728C34.5973 219.988 34.2507 219.897 34.882 219.019C35.288 218.331 35.5024 217.537 35.5009 216.728Z" fill="#FAFAFA"/>
<path d="M35.1605 214.137C35.1605 214.137 35.371 214.28 35.4267 214.977C35.4267 215.348 34.9006 216.851 34.1888 217.209C33.4771 217.567 33.8732 216.721 34.1888 216.311C34.6656 215.673 34.9979 214.93 35.1605 214.137Z" fill="#FAFAFA"/>
<path d="M35.3957 211.28C35.3957 211.28 35.6247 211.345 35.3957 212.302C35.0668 212.893 34.5591 213.351 33.9536 213.603C33.508 213.655 33.2914 213.421 33.8422 213.005C34.2631 212.699 35.3152 211.742 35.3957 211.28Z" fill="#FAFAFA"/>
<path d="M39.6662 198.496C39.6662 198.496 41.7643 193.322 49.2346 175.755C51.4936 170.437 52.0816 166.493 52.651 163.883C53.2699 161.169 55.7951 147.793 55.7951 147.793L59.0506 170.04C58.4189 172.928 58.0316 175.868 57.8932 178.827C57.8932 182.498 58.3326 188.076 59.3229 195.646C60.833 207.212 61.2415 213.219 61.2415 213.219C62.0151 213.805 64.4722 214.944 68.6685 214.697C70.5867 214.489 72.4577 213.941 74.2016 213.076C74.2016 213.076 75.1547 201.041 75.5508 192.652C75.916 184.906 76.5225 176.152 76.832 171.479C77.4509 162.705 77.6118 158.923 77.6984 145.092C77.7851 130.773 76.7453 109.659 76.7453 109.659L38.057 108.722C38.057 108.722 35.5133 114.697 36.2931 127.05C35.9898 139.111 34.2878 162.067 34.2878 162.067C32.1587 167.497 30.781 173.22 30.1968 179.061C29.6274 184.763 28.7671 192.274 28.7671 192.274C32.8891 192.118 37.3948 194.917 39.6662 198.496Z" fill="#92E3A9"/>
<path opacity="0.2" d="M55.8261 147.911L53.6908 131.971C53.6908 131.971 48.6714 131.561 42.6432 126.282C42.6432 126.282 43.4354 131.008 51.9888 134.236L54.2231 150.827L52.6015 164.326C52.6015 164.326 55.7889 148.217 55.8261 147.911Z" fill="black"/>
<path d="M86.0043 93.9727L87.3473 94.2135L88.1457 95.3916C88.028 95.6565 87.9669 95.9454 87.9669 96.2378C87.9669 96.5302 88.028 96.819 88.1457 97.0839C88.5604 97.9496 89.1607 97.6762 89.1607 97.6762L89.7796 96.1076L90.0272 93.9272L88.3376 92.3586L86.6789 92.0136L86.0043 93.9727Z" fill="#B16668"/>
<path d="M90.8814 93.2569C91.0579 93.8719 91.0792 94.5246 90.9433 95.1509C90.7957 95.7171 90.6053 96.2699 90.3739 96.8041C90.2006 97.1881 89.5198 97.1881 89.0989 96.2248C88.7523 95.4308 89.2413 93.6604 89.2413 93.6604L90.8814 93.2569Z" fill="#F0997A"/>
<path d="M93.4127 91.0699C93.5984 92.0722 94.1678 93.9533 94.273 94.6822C94.3782 95.4112 93.518 95.3331 93.518 95.3331L91.4879 92.261L93.4127 91.0699Z" fill="#F0997A"/>
<path d="M85.8 83.6174C86.7099 83.2268 86.6913 83.2138 87.9415 83.9103C89.6388 84.9079 91.2591 86.0439 92.7876 87.3078C93.6293 88.1019 93.4065 89.6444 93.4065 90.9722C93.4065 92.3 93.6355 93.7319 93.4065 94.1029C93.3756 94.156 93.3349 94.202 93.2867 94.2381C93.2385 94.2743 93.1838 94.2998 93.126 94.3131C93.0682 94.3265 93.0085 94.3275 92.9503 94.3159C92.8922 94.3044 92.8368 94.2807 92.7876 94.2461L85.8 83.6174Z" fill="#FFBDA7"/>
<path d="M93.7283 95.6261L94.8176 99.6225C94.8235 99.6482 94.8218 99.6753 94.8127 99.7C94.8036 99.7247 94.7875 99.7458 94.7667 99.7607C94.7458 99.7755 94.7212 99.7834 94.696 99.7831C94.6708 99.7828 94.6463 99.7745 94.6258 99.7592L91.4384 97.2859L93.7283 95.6261Z" fill="#FFA8A7"/>
<path d="M94.6443 99.7658L91.4384 97.2859L92.6762 96.4138L92.9547 96.8368L94.731 99.6421L94.6443 99.7658Z" fill="#F28F8F"/>
<path d="M94.6258 99.7592C94.6464 99.7745 94.6709 99.7828 94.6961 99.7831C94.7212 99.7834 94.7459 99.7755 94.7667 99.7607C94.7876 99.7458 94.8036 99.7247 94.8127 99.7C94.8218 99.6753 94.8236 99.6482 94.8177 99.6225L94.6011 98.8414C94.544 98.9613 94.4552 99.0613 94.3454 99.1294C94.2356 99.1975 94.1095 99.2309 93.9821 99.2255H93.9141L94.6258 99.7592Z" fill="#263238"/>
<path d="M80.4216 80.5844L80.6321 80.8969L80.8796 81.2809L91.4383 97.2858C91.8735 97.3775 92.3255 97.2963 92.7071 97.058C92.9713 96.9241 93.2015 96.7264 93.379 96.4809C93.5565 96.2354 93.6762 95.9491 93.7283 95.6456L83.1572 79.6472L82.6745 78.9182C82.9777 79.4129 80.7125 81.0726 80.4216 80.5844Z" fill="#455A64"/>
<path d="M80.4216 80.5844L80.6321 80.8969L80.8796 81.2809L91.4383 97.2858C91.7033 97.3395 91.9762 97.3318 92.2381 97.2632C92.5 97.1947 92.7445 97.0669 92.9546 96.8888L81.9627 80.0377C82.0061 80.0052 82.0061 79.9791 81.9627 79.9661C81.3686 80.4543 80.5825 80.8578 80.4216 80.5844Z" fill="#37474F"/>
<path d="M81.2078 81.7886L81.6781 82.4916C81.8081 82.6998 82.297 82.5306 82.8169 82.2247C83.4916 81.8277 84.1167 81.0987 83.9434 80.8188L83.603 80.2981L83.4792 80.1159C83.6463 80.3958 83.0212 81.1247 82.3466 81.5218C81.8576 81.8147 81.3749 81.9839 81.2263 81.8081L81.2078 81.7886Z" fill="#EBEBEB"/>
<path d="M81.3005 81.9644C81.6038 82.4526 83.869 80.7733 83.5719 80.2917L83.1573 79.5822C83.4544 80.0704 81.1891 81.7431 80.8859 81.255L81.3005 81.9644Z" fill="#37474F"/>
<path d="M80.4216 80.5845L80.8796 81.281C81.1705 81.7626 83.3553 80.168 83.1758 79.6473L82.7054 78.9444C82.9777 79.413 80.7125 81.0727 80.4216 80.5845Z" fill="#EBEBEB"/>
<path d="M79.4438 79.1394L80.4155 80.5843C80.5393 80.7926 81.0344 80.6234 81.5419 80.3239C82.2165 79.9269 82.854 79.1979 82.6869 78.9181L81.709 77.4666C81.3191 76.8743 80.0875 77.5642 79.5676 78.3062C79.4698 78.4159 79.4056 78.5541 79.3835 78.7027C79.3615 78.8513 79.3825 79.0035 79.4438 79.1394Z" fill="#F28F8F"/>
<path opacity="0.1" d="M80.3845 79.2437C80.698 79.1367 80.9836 78.9547 81.2188 78.7118C81.454 78.469 81.6324 78.172 81.7399 77.8444C81.7612 77.7652 81.7639 77.6818 81.7477 77.6013C81.7315 77.5208 81.697 77.4456 81.6471 77.3822C81.1953 76.9527 80.0627 77.6035 79.5737 78.3065C79.4781 78.4148 79.4148 78.5502 79.3917 78.696C79.3686 78.8418 79.3867 78.9915 79.4438 79.1266C79.5923 79.3479 79.9451 79.4065 80.3845 79.2437Z" fill="black"/>
<path d="M86.0414 89.1042C86.9883 90.1261 88.0467 90.406 89.8725 90.9332C90.7355 91.2913 91.5526 91.7614 92.3048 92.3326C93.0289 92.8468 93.3693 93.797 91.983 94.4739C91.0546 94.9296 89.8787 94.3633 88.8884 94.1615C88.3928 94.0624 87.8887 94.0188 87.3844 94.0314C85.9486 94.1225 85.701 94.6041 84.0794 94.9881C82.4579 95.3722 81.1644 94.9491 80.2607 95.1118C79.3571 95.2745 58.2645 101.92 58.2645 101.92L58.0417 89.5533C58.0417 89.5533 75.6746 88.1605 78.5154 87.6463C80.8178 87.2232 83.541 85.2446 83.541 85.2446L86.0414 89.1042Z" fill="#FFBDA7"/>
<path d="M80.2917 87.0865C79.7109 87.3475 79.105 87.5418 78.4845 87.6658C75.6437 88.18 58.0108 89.5728 58.0108 89.5728L58.2336 101.939C58.2336 101.939 79.3262 95.3005 80.2298 95.1313C80.4356 95.1092 80.643 95.1092 80.8488 95.1313L80.2917 87.0865Z" fill="#F0997A"/>
<path d="M90.7762 87.6593C90.6333 87.8672 90.4254 88.0157 90.189 88.0788C89.9525 88.1419 89.7025 88.1155 89.4826 88.0043C89.1113 87.796 87.8796 86.7741 87.8796 86.7741L90.9742 91.4409C90.8736 91.0308 90.8886 90.5989 91.0175 90.1977C91.1091 90.0544 91.2268 89.9317 91.3639 89.8367C91.501 89.7418 91.6546 89.6764 91.8159 89.6445C91.4692 89.5877 91.1148 89.6664 90.8195 89.8658C90.5958 89.7388 90.4044 89.5572 90.2611 89.3364C90.1179 89.1156 90.0271 88.8619 89.9963 88.5965C90.7885 88.0173 90.7762 87.6593 90.7762 87.6593Z" fill="#F0997A"/>
<path d="M37.7847 57.9405C35.2224 63.0889 35.4142 68.9207 36.1569 76.1649C36.8377 82.8169 37.3143 86.9434 37.8961 95.1769C38.5955 104.556 37.3576 110.492 37.3576 110.492C37.3576 110.492 42.5503 118.075 53.7032 121.062C73.298 126.308 77.4323 119.52 77.4323 119.52C77.4323 119.52 77.259 112.36 77.2838 106.795C77.2838 101.777 77.1971 95.8343 77.0362 90.8942C76.6587 79.5495 76.5349 70.1248 75.2847 66.0829C74.3625 63.8439 73.397 62.9587 71.0389 61.8327C69.0955 60.902 65.3882 59.0144 62.6217 57.8884C57.5357 55.9539 52.3589 54.2942 47.1117 52.9158C45.2578 52.6798 43.3792 53.0322 41.7172 53.9275C40.0552 54.8229 38.6857 56.2204 37.7847 57.9405Z" fill="#37474F"/>
<path d="M64.0453 52.9158L62.6341 57.8884C59.3044 57.9991 51.7474 56.5867 50.1754 54.9921L51.6298 49.1212L64.0453 52.9158Z" fill="#FFBDA7"/>
<path d="M75.1485 38.7657C75.1485 38.7657 76.4297 40.2302 76.8381 44.5389L74.3625 45.8407C74.1211 42.8011 73.8735 39.7225 75.1485 38.7657Z" fill="#F0997A"/>
<path d="M71.4783 26.2234C75.5384 27.3103 77.0485 31.6061 74.7338 40.4905C75.0185 50.169 71.7259 53.3388 70.4014 54.3346C67.5668 55.2849 64.9054 54.9855 61.52 53.3518C58.9391 52.05 52.4405 48.6069 50.3795 43.5887C47.9039 37.6592 48.4423 29.4647 52.5705 27.1802C58.3264 23.9323 69.3307 25.6506 71.4783 26.2234Z" fill="#FFBDA7"/>
<path d="M71.1688 48.0146C71.2162 48.0375 71.2584 48.0708 71.2926 48.1123C71.2926 48.1123 71.2926 48.1839 71.3421 48.2164C71.3797 48.2924 71.421 48.3663 71.4659 48.4377C71.5645 48.5911 71.681 48.7311 71.8125 48.8543C72.0584 49.0734 72.3337 49.2533 72.6295 49.388C72.6403 49.393 72.6496 49.4012 72.6562 49.4115C72.6628 49.4219 72.6664 49.4341 72.6666 49.4466C72.6742 49.4604 72.6782 49.4761 72.6782 49.4921C72.6782 49.5081 72.6742 49.5238 72.6666 49.5377C72.6047 49.5898 72.4933 49.5377 72.419 49.5377C72.3336 49.5138 72.2507 49.4811 72.1715 49.4401C71.9992 49.354 71.8372 49.2469 71.6887 49.1211C71.5441 49.0005 71.4151 48.8604 71.305 48.7046C71.2498 48.6283 71.2001 48.5478 71.1564 48.4637L71.0945 48.3466C71.0695 48.2729 71.0695 48.1924 71.0945 48.1188C71.0945 48.1188 71.1193 47.9886 71.1688 48.0146Z" fill="#F0997A"/>
<path d="M70.3705 54.3281C69.6216 54.8813 65.7472 55.389 63.5625 54.6926L64.07 52.9092C66.0987 53.6825 68.2186 54.1599 70.3705 54.3281Z" fill="#F0997A"/>
<path d="M70.6119 32.6344C70.5185 33.368 70.2065 34.0516 69.7206 34.587C69.0364 35.3284 68.1238 35.7898 67.1459 35.8888C67.5233 37.151 67.6103 38.4895 67.3997 39.794C67.3607 40.2087 67.2032 40.6013 66.9479 40.92C66.8626 41.0383 66.7474 41.1291 66.6155 41.182C66.4835 41.235 66.3401 41.2479 66.2016 41.2195C66.063 41.191 65.9348 41.1222 65.8315 41.021C65.7282 40.9197 65.654 40.79 65.6172 40.6467C65.4399 39.8972 65.1803 39.1721 64.8436 38.4858C64.3947 37.6663 63.6741 37.0498 62.8197 36.7544C59.5828 35.7781 58.6235 41.1739 59.6261 43.2632C61.2663 46.6737 63.3768 45.0986 63.3768 45.0986C63.3768 45.0986 63.68 49.9281 60.1522 51.3145C60.1522 51.3145 54.6563 52.1736 51.4874 49.6352C49.0118 45.5868 46.7094 41.0372 46.2328 37.3858C45.1931 29.4386 47.4707 24.9281 50.8066 24.2772C51.7288 21.4719 54.6006 20.1702 57.2433 19.7211C60.833 19.0702 63.909 20.8536 67.3626 21.4915C69.1325 21.8203 70.9503 21.7224 72.679 21.2051C73.4465 20.9773 74.3811 20.7039 74.9443 21.2767C75.1587 21.5157 75.299 21.8176 75.3466 22.1423C75.4595 22.7157 75.4428 23.309 75.2976 23.8743C75.1525 24.4396 74.8831 24.9611 74.511 25.3967C75.5322 24.8955 77.0795 25.5008 77.8655 26.4251C78.9858 27.7268 78.9672 29.0741 78.1936 30.7729C77.7108 31.7818 74.9566 34.8929 70.6119 32.6344Z" fill="#263238"/>
<path d="M50.8623 25.0389L48.0462 22.5525C48.367 22.1618 48.8218 21.9206 49.3113 21.8815C49.8007 21.8425 50.2849 22.0089 50.6581 22.3442C50.8423 22.5052 50.9941 22.7033 51.1044 22.927C51.2148 23.1506 51.2814 23.3951 51.3004 23.6463C51.3195 23.8974 51.2905 24.15 51.2153 24.3892C51.14 24.6283 51.02 24.8492 50.8623 25.0389Z" fill="#263238"/>
<path d="M106.936 114.352C106.206 113.584 105.475 112.9 104.869 112.295C104.367 111.794 103.718 111.104 102.603 109.815C102.133 109.262 101.613 109.535 100.635 109.197C99.6575 108.858 99.9484 108.045 99.3356 107.739C98.6177 107.374 98.3701 107.602 97.6769 107.264C96.8228 106.853 96.3834 105.89 95.3374 106.3C93.4498 107.036 92.8618 107.953 90.2438 105.422C83.7947 99.1537 79.8213 95.1508 79.8213 95.1508C79.8213 95.1508 78.5834 77.9873 78.0759 74.03C77.3642 68.6603 77.5251 64.9178 70.847 62.6267C70.847 62.6267 65.4934 65.2302 65.8957 75.4163C66.2609 84.2226 67.2387 92.8988 67.7524 97.1425C68.1671 100.722 68.7737 101.171 73.038 104.27C83.51 111.885 85.1254 113.102 86.4436 113.994C88.2137 115.191 90.0395 116.597 92.0139 116.734C93.8273 116.831 96.4267 115.582 97.6955 114.853C99.7317 113.688 101.409 113.082 102.059 113.252C102.709 113.421 103.916 114.775 105.153 115.126C106.391 115.478 107.295 114.723 106.936 114.352Z" fill="#FFBDA7"/>
<path d="M71.0513 61.8326C74.1458 63.3101 75.3837 64.0846 77.0052 66.8639C78.0759 68.6993 78.2431 70.691 78.7072 75.5595C79.0972 79.8162 79.6356 87.9261 79.6356 87.9261C79.6356 87.9261 78.9424 89.8787 74.4429 91.4213C71.8442 92.3585 69.0177 92.324 66.4404 91.3237C66.4404 91.3237 65.5553 82.8298 65.252 79.3151C64.8374 74.5507 64.497 65.3929 71.0513 61.8326Z" fill="#92E3A9"/>
<path d="M186.955 20.5933L205.04 31.5931C205.393 31.8143 205.659 32.3416 205.659 33.3569V56.5996C205.659 56.4434 205.368 56.9706 205.009 57.1789L202.441 58.7149C202.24 58.8208 202.018 58.876 201.794 58.876C201.569 58.876 201.348 58.8208 201.147 58.7149L183.062 47.7152C182.879 47.5829 182.728 47.4075 182.621 47.203C182.513 46.9985 182.453 46.7705 182.443 46.5371V23.2944C182.455 23.0589 182.521 22.8297 182.634 22.626C182.747 22.4222 182.904 22.2498 183.093 22.1228L185.662 20.5868C185.863 20.4833 186.085 20.4301 186.309 20.4312C186.534 20.4324 186.755 20.4878 186.955 20.5933Z" fill="#92E3A9"/>
<path opacity="0.2" d="M201.172 58.7085C201.373 58.8129 201.594 58.8672 201.819 58.8672C202.043 58.8672 202.264 58.8129 202.465 58.7085L205.034 57.1724C205.393 56.9641 205.684 56.4369 205.684 56.5931V33.357C205.742 32.9113 205.671 32.4576 205.479 32.0552L201.624 34.3853C201.747 34.5936 201.815 34.8344 201.815 34.4699V57.7061C201.815 58.715 201.549 58.9428 201.172 58.7085Z" fill="black"/>
<path opacity="0.3" d="M182.45 23.1708C182.505 22.8259 182.772 22.7087 183.069 22.8975L201.147 33.9037C201.339 34.0268 201.495 34.2022 201.599 34.4114L205.455 32.0813C205.348 31.8815 205.195 31.7136 205.009 31.5931L186.931 20.5934C186.73 20.4875 186.508 20.4323 186.284 20.4323C186.059 20.4323 185.838 20.4875 185.637 20.5934L183.069 22.1295C182.903 22.2489 182.762 22.4031 182.656 22.5823C182.549 22.7615 182.479 22.9618 182.45 23.1708Z" fill="white"/>
<path d="M207.454 50.0064C207.856 49.7525 210.951 47.9236 211.05 47.8585C211.122 47.8072 211.183 47.7403 211.229 47.6623C211.275 47.5844 211.305 47.497 211.317 47.406C211.329 47.3151 211.322 47.2225 211.297 47.1345C211.273 47.0464 211.23 46.9649 211.174 46.8952L205.702 40.2693L201.816 42.6125L207.559 49.0561C207.615 49.1243 207.656 49.2038 207.681 49.2898C207.706 49.3757 207.714 49.4662 207.704 49.5555C207.694 49.6447 207.667 49.7309 207.624 49.8085C207.581 49.8861 207.523 49.9535 207.454 50.0064Z" fill="#92E3A9"/>
<path opacity="0.3" d="M207.454 50.0064C207.856 49.7525 210.951 47.9236 211.05 47.8585C211.122 47.8072 211.183 47.7403 211.229 47.6623C211.275 47.5844 211.305 47.497 211.317 47.406C211.329 47.3151 211.322 47.2225 211.297 47.1345C211.273 47.0464 211.23 46.9649 211.174 46.8952L205.702 40.2693L201.816 42.6125L207.559 49.0561C207.615 49.1243 207.656 49.2038 207.681 49.2898C207.706 49.3757 207.714 49.4662 207.704 49.5555C207.694 49.6447 207.667 49.7309 207.624 49.8085C207.581 49.8861 207.523 49.9535 207.454 50.0064Z" fill="white"/>
<path d="M183.087 22.9039L201.172 33.9037C201.355 34.0342 201.507 34.2083 201.614 34.4118C201.722 34.6153 201.782 34.8426 201.791 35.0752V42.6123L207.559 49.056C207.638 49.1391 207.692 49.2441 207.715 49.3586C207.738 49.4731 207.73 49.5923 207.691 49.7019C207.652 49.8116 207.584 49.9072 207.494 49.9772C207.405 50.0473 207.299 50.089 207.188 50.0974L201.809 49.6808V58.3179C201.809 58.7475 201.525 58.9232 201.19 58.7084L183.106 47.7087C182.923 47.5764 182.771 47.401 182.664 47.1965C182.557 46.992 182.496 46.764 182.487 46.5306V23.2944C182.444 22.8584 182.734 22.6826 183.087 22.9039Z" fill="#92E3A9"/>
<path d="M190.05 47.3964H189.864C189.635 47.3627 189.417 47.2695 189.23 47.1252C189.043 46.981 188.893 46.7901 188.794 46.5698L186.565 41.6361C186.409 41.2857 186.391 40.8842 186.515 40.5198C186.64 40.1555 186.898 39.8581 187.231 39.6933C187.564 39.5284 187.946 39.5095 188.292 39.6408C188.639 39.772 188.921 40.0426 189.078 40.393L190.397 43.2633L196.765 35.4529C197.011 35.1559 197.36 34.9741 197.733 34.9472C198.107 34.9203 198.476 35.0507 198.758 35.3097C199.04 35.5686 199.213 35.9349 199.239 36.3279C199.264 36.721 199.14 37.1086 198.894 37.4055L191.127 46.9147C190.992 47.0727 190.825 47.1977 190.639 47.2809C190.453 47.3641 190.252 47.4035 190.05 47.3964Z" fill="#FAFAFA"/>
</svg>
