<svg width="60" height="60" viewBox="0 0 60 60" fill="none" xmlns="http://www.w3.org/2000/svg">
<circle cx="30" cy="30" r="30" fill="white"/>
<path d="M40.7083 16.375H20.2917C18.6875 16.375 17.375 17.6875 17.375 19.2917V39.7083C17.375 41.3125 18.6875 42.625 20.2917 42.625H40.7083C42.3125 42.625 43.625 41.3125 43.625 39.7083V19.2917C43.625 17.6875 42.3125 16.375 40.7083 16.375ZM30.5146 38.25C29.4938 38.25 28.6771 37.4333 28.6771 36.4125C28.6771 35.3771 29.4938 34.5896 30.5146 34.5896C31.55 34.5896 32.3375 35.3771 32.3375 36.4125C32.3229 37.4188 31.55 38.25 30.5146 38.25ZM34.9042 27.4583C33.7958 29.0771 32.7458 29.5875 32.1771 30.6229C31.9437 31.0458 31.8563 31.3229 31.8563 32.6792H29.2021C29.2021 31.9646 29.0854 30.7979 29.6542 29.7917C30.3688 28.5229 31.725 27.7646 32.5125 26.6417C33.3438 25.4604 32.8771 23.2438 30.5146 23.2438C28.9688 23.2438 28.2104 24.4104 27.8896 25.4021L25.4833 24.3812C26.1396 22.4271 27.9042 20.75 30.4854 20.75C32.6438 20.75 34.1167 21.7271 34.875 22.9667C35.5167 24.0167 35.8958 25.9854 34.9042 27.4583Z" fill="#0CBB5C"/>
</svg>
