<svg width="21" height="27" viewBox="0 0 21 27" fill="none" xmlns="http://www.w3.org/2000/svg">
<path d="M8.4253 26.36C7.5133 26.36 6.6493 26.252 5.8333 26.036C5.0173 25.844 4.2733 25.556 3.6013 25.172C2.9293 24.764 2.3293 24.284 1.8013 23.732C1.2733 23.156 0.817297 22.52 0.433297 21.824L3.9253 18.188C4.2613 18.692 4.5853 19.112 4.8973 19.448C5.2093 19.76 5.5093 20.024 5.7973 20.24C6.1093 20.456 6.4213 20.612 6.7333 20.708C7.0693 20.804 7.4173 20.852 7.7773 20.852C8.3533 20.852 8.8573 20.72 9.2893 20.456C9.7453 20.168 10.0933 19.784 10.3333 19.304C10.5733 18.824 10.6933 18.26 10.6933 17.612V6.128H6.0853V0.799998H20.5573V6.128H16.6693V18.332C16.6693 19.556 16.4533 20.66 16.0213 21.644C15.6133 22.628 15.0373 23.48 14.2933 24.2C13.5493 24.896 12.6733 25.436 11.6653 25.82C10.6813 26.18 9.6013 26.36 8.4253 26.36Z" fill="#0CBB5C"/>
</svg>
