<svg width="35" height="35" viewBox="0 0 35 35" fill="none" xmlns="http://www.w3.org/2000/svg">
<path d="M31.3988 29.8511L24.5533 23.007C26.5374 20.6249 27.5268 17.5697 27.3156 14.4767C27.1045 11.3838 25.709 8.49135 23.4196 6.40108C21.1301 4.31081 18.1229 3.18365 15.0236 3.25409C11.9243 3.32453 8.97143 4.58713 6.77931 6.77926C4.58719 8.97138 3.32458 11.9242 3.25414 15.0236C3.18371 18.1229 4.31086 21.1301 6.40113 23.4195C8.4914 25.709 11.3839 27.1044 14.4768 27.3156C17.5697 27.5267 20.625 26.5374 23.007 24.5533L29.8512 31.3988C29.9528 31.5004 30.0734 31.581 30.2062 31.636C30.339 31.691 30.4813 31.7193 30.625 31.7193C30.7687 31.7193 30.911 31.691 31.0438 31.636C31.1766 31.581 31.2972 31.5004 31.3988 31.3988C31.5005 31.2972 31.5811 31.1765 31.6361 31.0437C31.6911 30.911 31.7194 30.7687 31.7194 30.6249C31.7194 30.4812 31.6911 30.3389 31.6361 30.2062C31.5811 30.0734 31.5005 29.9527 31.3988 29.8511ZM5.46875 15.3124C5.46875 13.3655 6.04608 11.4623 7.12772 9.84355C8.20937 8.22475 9.74675 6.96306 11.5455 6.21801C13.3442 5.47296 15.3234 5.27802 17.2329 5.65784C19.1424 6.03766 20.8964 6.97519 22.2731 8.35186C23.6498 9.72854 24.5873 11.4825 24.9671 13.392C25.3469 15.3015 25.152 17.2808 24.4069 19.0795C23.6619 20.8782 22.4002 22.4156 20.7814 23.4972C19.1626 24.5789 17.2594 25.1562 15.3125 25.1562C12.7027 25.1533 10.2005 24.1153 8.35511 22.2698C6.50968 20.4244 5.47164 17.9223 5.46875 15.3124Z" fill="black" fill-opacity="0.87"/>
</svg>
