<svg width="25" height="25" viewBox="0 0 25 25" fill="none" xmlns="http://www.w3.org/2000/svg">
<path d="M21.875 14.8436V20.3124C21.875 20.7268 21.7104 21.1242 21.4174 21.4172C21.1243 21.7103 20.7269 21.8749 20.3125 21.8749H4.6875C4.2731 21.8749 3.87567 21.7103 3.58265 21.4172C3.28962 21.1242 3.125 20.7268 3.125 20.3124V14.8436C3.125 14.6364 3.20731 14.4377 3.35382 14.2912C3.50034 14.1447 3.69905 14.0624 3.90625 14.0624C4.11345 14.0624 4.31216 14.1447 4.45868 14.2912C4.60519 14.4377 4.6875 14.6364 4.6875 14.8436V20.3124H20.3125V14.8436C20.3125 14.6364 20.3948 14.4377 20.5413 14.2912C20.6878 14.1447 20.8865 14.0624 21.0938 14.0624C21.301 14.0624 21.4997 14.1447 21.6462 14.2912C21.7927 14.4377 21.875 14.6364 21.875 14.8436ZM9.14648 8.36512L11.7188 5.79187V14.8436C11.7188 15.0508 11.8011 15.2495 11.9476 15.3961C12.0941 15.5426 12.2928 15.6249 12.5 15.6249C12.7072 15.6249 12.9059 15.5426 13.0524 15.3961C13.1989 15.2495 13.2812 15.0508 13.2812 14.8436V5.79187L15.8535 8.36512C16.0001 8.51171 16.1989 8.59407 16.4062 8.59407C16.6136 8.59407 16.8124 8.51171 16.959 8.36512C17.1056 8.21852 17.1879 8.0197 17.1879 7.81238C17.1879 7.60507 17.1056 7.40624 16.959 7.25965L13.0527 3.3534C12.9802 3.28076 12.894 3.22314 12.7992 3.18382C12.7043 3.1445 12.6027 3.12427 12.5 3.12427C12.3973 3.12427 12.2957 3.1445 12.2008 3.18382C12.106 3.22314 12.0198 3.28076 11.9473 3.3534L8.04102 7.25965C7.89442 7.40624 7.81207 7.60507 7.81207 7.81238C7.81207 8.0197 7.89442 8.21852 8.04102 8.36512C8.18761 8.51171 8.38643 8.59407 8.59375 8.59407C8.80107 8.59407 8.99989 8.51171 9.14648 8.36512Z" fill="#0CBB5C"/>
</svg>
