<svg width="25" height="25" viewBox="0 0 25 25" fill="none" xmlns="http://www.w3.org/2000/svg">
<path d="M24.4141 6.17102L18.828 0.585955C18.6423 0.400187 18.4218 0.252826 18.1792 0.152286C17.9365 0.0517473 17.6764 0 17.4137 0C17.151 0 16.8909 0.0517473 16.6483 0.152286C16.4056 0.252826 16.1851 0.400187 15.9994 0.585955L0.586237 15.9999C0.399719 16.1849 0.251842 16.4052 0.151203 16.6479C0.0505641 16.8906 -0.000829267 17.1509 1.01183e-05 17.4137V23C1.01183e-05 23.5304 0.210716 24.0391 0.585774 24.4142C0.960832 24.7893 1.46952 25 1.99993 25H22.9991C23.2643 25 23.5187 24.8946 23.7062 24.7071C23.8937 24.5196 23.9991 24.2652 23.9991 24C23.9991 23.7348 23.8937 23.4804 23.7062 23.2929C23.5187 23.1053 23.2643 23 22.9991 23H10.4146L24.4141 8.99981C24.5998 8.81408 24.7472 8.59358 24.8477 8.35089C24.9483 8.10821 25 7.8481 25 7.58541C25 7.32273 24.9483 7.06262 24.8477 6.81993C24.7472 6.57725 24.5998 6.35675 24.4141 6.17102ZM7.58597 23H1.99993V17.4137L12.9995 6.41352L18.5855 11.9998L7.58597 23ZM19.9992 10.5861L14.4145 4.99976L17.4143 1.99972L22.9991 7.58604L19.9992 10.5861Z" fill="#0CBB5C"/>
</svg>
