<svg width="27" height="27" viewBox="0 0 27 27" fill="none" xmlns="http://www.w3.org/2000/svg">
<path d="M11.3125 25.5312C11.3125 25.8213 11.1973 26.0995 10.9921 26.3046C10.787 26.5098 10.5088 26.625 10.2188 26.625H2.5625C1.98234 26.625 1.42594 26.3945 1.0157 25.9843C0.605468 25.5741 0.375 25.0177 0.375 24.4375V2.5625C0.375 1.98234 0.605468 1.42594 1.0157 1.0157C1.42594 0.605468 1.98234 0.375 2.5625 0.375H10.2188C10.5088 0.375 10.787 0.490234 10.9921 0.695352C11.1973 0.90047 11.3125 1.17867 11.3125 1.46875C11.3125 1.75883 11.1973 2.03703 10.9921 2.24215C10.787 2.44727 10.5088 2.5625 10.2188 2.5625H2.5625V24.4375H10.2188C10.5088 24.4375 10.787 24.5527 10.9921 24.7579C11.1973 24.963 11.3125 25.2412 11.3125 25.5312ZM26.3051 12.7262L20.8363 7.25742C20.6311 7.05219 20.3527 6.93689 20.0625 6.93689C19.7723 6.93689 19.4939 7.05219 19.2887 7.25742C19.0834 7.46265 18.9681 7.74101 18.9681 8.03125C18.9681 8.32149 19.0834 8.59985 19.2887 8.80508L22.8912 12.4062H10.2188C9.92867 12.4062 9.65047 12.5215 9.44535 12.7266C9.24023 12.9317 9.125 13.2099 9.125 13.5C9.125 13.7901 9.24023 14.0683 9.44535 14.2734C9.65047 14.4785 9.92867 14.5938 10.2188 14.5938H22.8912L19.2887 18.1949C19.0834 18.4002 18.9681 18.6785 18.9681 18.9688C18.9681 19.259 19.0834 19.5373 19.2887 19.7426C19.4939 19.9478 19.7723 20.0631 20.0625 20.0631C20.3527 20.0631 20.6311 19.9478 20.8363 19.7426L26.3051 14.2738C26.4068 14.1722 26.4874 14.0516 26.5425 13.9188C26.5975 13.7861 26.6259 13.6437 26.6259 13.5C26.6259 13.3563 26.5975 13.2139 26.5425 13.0812C26.4874 12.9484 26.4068 12.8278 26.3051 12.7262Z" fill="#0CBB5C"/>
</svg>
