<svg width="35" height="35" viewBox="0 0 35 35" fill="none" xmlns="http://www.w3.org/2000/svg">
<path d="M20.0431 14.233C20.0917 14.4188 20.1883 14.5886 20.3233 14.7252C20.4582 14.8618 20.6268 14.9604 20.812 15.0112L30.3045 17.6174C30.4729 17.6626 30.6497 17.6669 30.8201 17.6299C30.9905 17.5929 31.1496 17.5157 31.2841 17.4048C31.4187 17.2938 31.5247 17.1523 31.5934 16.992C31.6621 16.8317 31.6915 16.6574 31.6791 16.4834C31.4348 13.1058 29.9936 9.92608 27.6147 7.51591C25.2358 5.10574 22.0752 3.62318 18.701 3.33474C18.5265 3.3199 18.351 3.34717 18.1893 3.41428C18.0275 3.48138 17.8842 3.58635 17.7714 3.72036C17.6688 3.84085 17.5941 3.98252 17.5526 4.13524C17.5017 4.32034 17.5005 4.51558 17.5489 4.70133L20.0431 14.233ZM29.2857 15.0692L22.0002 13.069L20.0905 5.7564C20.294 5.79524 20.4944 5.85026 20.6895 5.90383C22.827 6.49267 24.7605 7.65991 26.2772 9.27703C27.7939 10.8942 28.8349 12.8984 29.2857 15.0692ZM21.0214 31.2796C21.0484 31.2742 21.0767 31.2693 21.1044 31.2613C21.1321 31.2533 21.1552 31.2469 21.1802 31.2381C23.577 30.5961 25.7642 29.3384 27.5246 27.5898C29.285 25.8412 30.5575 23.6626 31.2156 21.2702C31.2924 20.9904 31.2549 20.6917 31.1115 20.4396C30.968 20.1875 30.7302 20.0027 30.4505 19.9259L18.3436 16.602L15.1447 4.55025C15.1079 4.41049 15.0438 4.27941 14.9561 4.16457C14.8683 4.04974 14.7587 3.95344 14.6335 3.88123C14.5083 3.80903 14.37 3.76235 14.2267 3.74389C14.0833 3.72544 13.9378 3.73557 13.7984 3.77371C10.7839 4.58545 8.12042 6.36668 6.21888 8.84254C4.31734 11.3184 3.28346 14.3512 3.2768 17.4731C3.27014 20.5949 4.29107 23.6321 6.18203 26.116C8.073 28.6 10.7289 30.3926 13.7398 31.2172C16.1199 31.8738 18.6304 31.8954 21.0214 31.2796ZM28.7691 21.7327C28.1559 23.3632 27.1961 24.8412 25.956 26.0647C24.7159 27.2881 23.2251 28.2278 21.5864 28.8189L18.9932 19.0488L28.7691 21.7327ZM5.90228 14.3205C6.41251 12.4805 7.3512 10.7876 8.6415 9.3801C9.9318 7.97264 11.537 6.89074 13.3258 6.22292L16.3858 17.7531L16.3963 17.7871L19.4718 29.374C17.4803 29.7041 15.4377 29.5278 13.5323 28.8613C11.6268 28.1948 9.91967 27.0596 8.56808 25.5602C7.21649 24.0608 6.2639 22.2454 5.79804 20.2812C5.33218 18.317 5.36803 16.2672 5.90228 14.3205Z" fill="black" fill-opacity="0.81"/>
</svg>
