<svg width="22" height="22" viewBox="0 0 22 22" fill="none" xmlns="http://www.w3.org/2000/svg">
<path d="M6.15869 10L10.1587 1C10.9543 1 11.7174 1.31607 12.28 1.87868C12.8426 2.44129 13.1587 3.20435 13.1587 4V8H18.8187C19.1086 7.99672 19.3958 8.0565 19.6603 8.17522C19.9248 8.29393 20.1603 8.46873 20.3505 8.68751C20.5408 8.90629 20.6812 9.16382 20.762 9.44225C20.8429 9.72068 20.8622 10.0134 20.8187 10.3L19.4387 19.3C19.3664 19.7769 19.1241 20.2116 18.7566 20.524C18.3891 20.8364 17.921 21.0055 17.4387 21H6.15869M6.15869 10V21M6.15869 10H3.15869C2.62826 10 2.11955 10.2107 1.74448 10.5858C1.36941 10.9609 1.15869 11.4696 1.15869 12V19C1.15869 19.5304 1.36941 20.0391 1.74448 20.4142C2.11955 20.7893 2.62826 21 3.15869 21H6.15869" stroke="black" stroke-opacity="0.81" stroke-width="2" stroke-linecap="round" stroke-linejoin="round"/>
</svg>
